<svg width="164" height="43" viewBox="0 0 164 43" fill="none" xmlns="http://www.w3.org/2000/svg">
<path d="M34.7971 42.776H7.97888C3.57173 42.776 0 39.2043 0 34.7971V7.97889C0 3.57174 3.57173 0 7.97888 0H34.7971C39.2043 0 42.776 3.57174 42.776 7.97889V34.7971C42.776 39.2043 39.2043 42.776 34.7971 42.776Z" fill="#292F36"/>
<path d="M29.0946 21.7816C29.8574 22.738 30.2449 23.8519 30.2449 25.1111C30.2449 26.9636 29.6274 28.4165 28.3924 29.4456C27.1575 30.4748 25.3897 31.0075 23.0893 31.0075H13.04V9.39551H22.8472C25.0507 9.39551 26.7458 9.87981 27.9444 10.8363C29.1431 11.7928 29.7485 13.161 29.7485 14.9287C29.7485 16.2363 29.3974 17.3139 28.7072 18.1856C28.0171 19.0573 27.109 19.6143 25.983 19.8807C27.3028 20.1955 28.3319 20.8251 29.0946 21.7816ZM18.2584 18.234H21.6848C23.501 18.234 24.409 17.4592 24.409 15.9094C24.409 14.3596 23.4768 13.5847 21.6243 13.5847H18.2584V18.234V18.234ZM24.8933 24.3847C24.8933 23.6098 24.6391 23.0044 24.1306 22.5685C23.6221 22.1327 22.8956 21.9147 21.9633 21.9147H18.2705V26.7699H21.9996C23.9247 26.7578 24.8933 25.9708 24.8933 24.3847Z" fill="white"/>
<path d="M67.5603 31.0075L62.8867 22.847H61.7002V31.0075H56.4697V9.39551H65.393C67.1002 9.39551 68.5531 9.68609 69.7275 10.2794C70.9141 10.8726 71.7979 11.6838 72.3912 12.713C72.9844 13.7421 73.275 14.9166 73.275 16.2484C73.275 17.8224 72.8391 19.1542 71.9795 20.256C71.1078 21.3578 69.8607 22.1085 68.202 22.5201L73.3356 31.0196H67.5603V31.0075ZM61.7002 19.2753H64.9329C65.9742 19.2753 66.7369 19.0452 67.2212 18.5852C67.7056 18.1251 67.9598 17.447 67.9598 16.5511C67.9598 15.6914 67.7055 15.0255 67.2091 14.5291C66.7127 14.0448 65.9499 13.7906 64.9329 13.7906H61.7002V19.2753Z" fill="#292F36"/>
<path d="M96.9334 27.0725H88.8335L87.4895 31.0195H81.9927L89.911 9.56494H95.9285L103.847 31.0195H98.2895L96.9334 27.0725ZM95.5895 23.0891L92.9016 15.1465L90.1774 23.0891H95.5895Z" fill="#292F36"/>
<path d="M132.699 31.0075H127.469L118.727 17.7376V31.0075H113.497V9.39551H118.727L127.469 22.7865V9.39551H132.699V31.0075Z" fill="#292F36"/>
<path d="M162.023 25.8014C161.115 27.4359 159.808 28.7193 158.113 29.6395C156.405 30.5596 154.408 31.0197 152.107 31.0197H143.947V9.40771H152.107C154.432 9.40771 156.442 9.8557 158.125 10.7517C159.82 11.6476 161.115 12.9068 162.023 14.5413C162.931 16.1758 163.379 18.0404 163.379 20.1713C163.379 22.2781 162.919 24.1547 162.023 25.8014ZM156.393 24.7117C157.519 23.6341 158.088 22.1085 158.088 20.1592C158.088 18.1978 157.519 16.6844 156.393 15.6068C155.267 14.5292 153.681 13.9844 151.635 13.9844H149.165V26.3341H151.635C153.681 26.3341 155.267 25.8013 156.393 24.7117Z" fill="#292F36"/>
</svg>
