<svg width="117" height="48" viewBox="0 0 117 48" fill="none" xmlns="http://www.w3.org/2000/svg">
<path d="M0 29.2057V0H17.2008V29.1914H0V29.2057ZM15.1168 22.411L15.5593 19.185L13.9605 19.028L13.4752 21.5117C12.4759 22.0113 11.2483 22.254 9.77807 22.254C7.77963 22.254 6.19515 21.6259 5.03891 20.3555C3.8684 19.0851 3.29741 17.4149 3.29741 15.3309C3.29741 13.3039 3.8684 11.6337 4.99609 10.3205C6.12378 9.00723 7.60836 8.3506 9.44978 8.3506C10.3919 8.3506 11.1912 8.4648 11.8336 8.67892C12.476 8.89304 13.0612 9.17853 13.6179 9.54966L14.089 12.0049L15.7163 11.8479L15.2452 8.62182C14.5601 8.03656 13.7464 7.5655 12.8043 7.19437C11.8621 6.8375 10.6917 6.65193 9.30703 6.65193C7.66545 6.65193 6.25227 7.05162 5.06749 7.86527C3.8827 8.67892 2.95485 9.74951 2.29822 11.077C1.64159 12.4188 1.31328 13.8606 1.31328 15.4022C1.31328 17.8432 2.06982 19.8844 3.58292 21.5117C5.09602 23.139 7.0659 23.9527 9.50685 23.9527C11.905 23.9527 13.775 23.4388 15.1168 22.411Z" fill="#292F36"/>
<path d="M23.0391 29.2057V0H30.4333V29.1914H23.0391V29.2057ZM23.8241 23.6957H29.6624V22.2255H27.6498V5.92393H23.7956V7.39421H25.8369V22.2255H23.8241V23.6957V23.6957Z" fill="#292F36"/>
<path d="M36.2715 29.2057V0H49.2613V29.1914H36.2715V29.2057ZM38.6268 13.0755L38.2128 15.7305L39.7117 15.9161L40.1542 13.9319C40.7965 13.6179 41.5245 13.4609 42.381 13.4609C43.4088 13.4609 44.1082 13.7178 44.4651 14.2317C44.822 14.7456 44.9932 15.4165 44.9932 16.2444V17.2722C44.6792 17.2436 44.3509 17.2151 43.994 17.2008C43.6371 17.1865 43.2946 17.1723 42.952 17.1723C41.6673 17.1723 40.4396 17.4007 39.2977 17.8574C38.1557 18.3142 37.5848 19.2706 37.5848 20.7124C37.5848 21.94 37.9702 22.7822 38.7553 23.2389C39.5404 23.71 40.3112 23.9384 41.0678 23.9384C41.9956 23.9384 42.7949 23.6957 43.4516 23.2104C44.1082 22.7251 44.6221 22.1826 44.9932 21.5545V21.6116C45.0218 23.1676 45.7213 23.9384 47.0916 23.9384C47.6198 23.9384 48.1194 23.8099 48.5904 23.553L48.5619 22.3682C48.3335 22.4681 48.0765 22.5252 47.791 22.5252C47.1344 22.5252 46.8061 22.1113 46.8061 21.2833V15.8162C46.8061 13.2468 45.4357 11.9621 42.695 11.9621C41.9385 11.9621 41.2247 12.0477 40.5538 12.219C39.8687 12.4046 39.2263 12.6901 38.6268 13.0755ZM44.979 19.3848C44.9076 20.3269 44.5222 21.0835 43.8227 21.6259C43.1233 22.1826 42.381 22.4538 41.5816 22.4538C41.082 22.4538 40.5967 22.3111 40.1399 22.0399C39.6689 21.7687 39.4404 21.2548 39.4404 20.5125C39.4404 19.6132 39.7973 19.0422 40.4825 18.771C41.1819 18.4998 41.9527 18.3713 42.8235 18.3713C43.2089 18.3713 43.58 18.3856 43.9369 18.4284C44.2938 18.457 44.6506 18.4855 44.9647 18.4998V19.3848H44.979Z" fill="#292F36"/>
<path d="M55.1143 29.2057V0H66.9193V29.1914H55.1143V29.2057ZM65.6774 20.3698C65.6774 19.4562 65.4347 18.7853 64.9494 18.3428C64.4641 17.9003 63.8788 17.6005 63.1651 17.4292C62.4513 17.2579 61.7519 17.1152 61.0525 17.001C60.353 16.8868 59.7535 16.7012 59.2682 16.4585C58.7828 16.2159 58.5401 15.7876 58.5401 15.1738C58.5401 14.5886 58.7685 14.1603 59.2396 13.8748C59.7106 13.5894 60.2959 13.4609 61.0239 13.4609C61.8661 13.4609 62.6512 13.6465 63.3792 14.0319L63.6647 15.8876L65.1635 15.702L64.878 13.0184C64.3927 12.7186 63.8075 12.4759 63.108 12.2761C62.4086 12.0763 61.6663 11.9621 60.8669 11.9621C59.8106 11.9621 58.8399 12.219 57.9406 12.7186C57.0413 13.2182 56.5988 14.0747 56.5988 15.3023C56.5988 16.2016 56.8415 16.8582 57.3268 17.2722C57.8121 17.7004 58.4117 17.9859 59.1397 18.1572C59.8677 18.3285 60.5814 18.4712 61.2951 18.5997C62.0088 18.7139 62.6084 18.9138 63.0937 19.1707C63.5791 19.4276 63.8217 19.8702 63.8217 20.5125C63.8217 21.1691 63.5076 21.6545 62.8796 21.9685C62.2515 22.2826 61.5378 22.4396 60.7241 22.4396C59.8106 22.4396 58.9541 22.254 58.169 21.8686L58.2404 20.3412L56.7986 20.1842L56.4418 22.7964C56.9414 23.1247 57.598 23.396 58.3974 23.6101C59.1968 23.8242 59.9961 23.9384 60.8098 23.9384C62.1944 23.9384 63.3507 23.6244 64.2785 22.982C65.2064 22.3682 65.6774 21.4832 65.6774 20.3698Z" fill="#292F36"/>
<path d="M72.7573 29.2057V0H84.5623V29.1914H72.7573V29.2057ZM83.3204 20.3698C83.3204 19.4562 83.0777 18.7853 82.5924 18.3428C82.1071 17.9003 81.5218 17.6005 80.8081 17.4292C80.0944 17.2579 79.3949 17.1152 78.6955 17.001C77.996 16.8868 77.3965 16.7012 76.9112 16.4585C76.4258 16.2159 76.1832 15.7876 76.1832 15.1738C76.1832 14.5886 76.4115 14.1603 76.8826 13.8748C77.3537 13.5894 77.9389 13.4609 78.6669 13.4609C79.5091 13.4609 80.2942 13.6465 81.0222 14.0319L81.3078 15.8876L82.8066 15.702L82.5211 13.0184C82.0357 12.7186 81.4505 12.4759 80.751 12.2761C80.0516 12.0763 79.3093 11.9621 78.5099 11.9621C77.4536 11.9621 76.483 12.219 75.5837 12.7186C74.6844 13.2182 74.2418 14.0747 74.2418 15.3023C74.2418 16.2016 74.4845 16.8582 74.9699 17.2722C75.4552 17.7004 76.0548 17.9859 76.7828 18.1572C77.5108 18.3285 78.2244 18.4712 78.9381 18.5997C79.6519 18.7139 80.2514 18.9138 80.7367 19.1707C81.2221 19.4276 81.4648 19.8702 81.4648 20.5125C81.4648 21.1691 81.1508 21.6545 80.5227 21.9685C79.8946 22.2826 79.1809 22.4396 78.3672 22.4396C77.4536 22.4396 76.5971 22.254 75.812 21.8686L75.8835 20.3412L74.4417 20.1842L74.0848 22.7964C74.5845 23.1247 75.2411 23.396 76.0404 23.6101C76.8398 23.8242 77.6392 23.9384 78.4528 23.9384C79.8375 23.9384 80.9937 23.6244 81.9216 22.982C82.8494 22.3682 83.3204 21.4832 83.3204 20.3698Z" fill="#292F36"/>
<path d="M90.4009 29.2057V0H98.1805V29.1914H90.4009V29.2057ZM91.5428 23.6957H97.3811V22.2255H95.3684V12.2047H91.5V13.675H93.5698V22.2255H91.5571V23.6957H91.5428ZM93.37 6.88033V9.23563H95.3399V6.88033H93.37Z" fill="#292F36"/>
<path d="M104.019 29.2057V0H116.452V29.1914H104.019V29.2057ZM115.338 19.8273L113.782 19.4847C113.44 21.4261 112.398 22.3967 110.685 22.3967C109.543 22.3967 108.672 22.0113 108.073 21.2405C107.473 20.4697 107.173 19.3848 107.173 18.0145C107.173 16.7726 107.444 15.7163 107.973 14.8312C108.501 13.9462 109.386 13.518 110.613 13.518C111.556 13.518 112.383 13.7321 113.069 14.1603L113.511 16.1017L115.01 15.9161L114.567 13.1468C113.982 12.7043 113.368 12.3903 112.726 12.219C112.084 12.0477 111.384 11.9621 110.628 11.9621C108.843 11.9621 107.487 12.5901 106.602 13.8463C105.703 15.1025 105.26 16.5299 105.26 18.1144C105.26 19.9558 105.731 21.3975 106.688 22.411C107.63 23.4388 108.9 23.9527 110.485 23.9527C112.069 23.9527 113.24 23.5102 113.982 22.6394C114.725 21.7544 115.181 20.8265 115.338 19.8273Z" fill="#292F36"/>
<path d="M7.43708 45.1504C7.10877 45.7499 6.62342 46.221 5.99534 46.5493C5.35298 46.8776 4.59643 47.0489 3.7114 47.0489H1.15625V38.998H3.7114C4.59643 38.998 5.36726 39.1551 5.99534 39.4834C6.62342 39.8117 7.10877 40.2685 7.43708 40.8823C7.76539 41.4961 7.92241 42.1955 7.92241 43.0235C7.92241 43.8371 7.76539 44.5508 7.43708 45.1504ZM6.02387 45.3074C6.58058 44.765 6.85182 44.0084 6.85182 43.0235C6.85182 42.0385 6.58058 41.282 6.02387 40.7395C5.46716 40.1971 4.66779 39.9259 3.61147 39.9259H2.16977V46.121H3.61147C4.66779 46.121 5.46716 45.8498 6.02387 45.3074Z" fill="#292F36"/>
<path d="M13.2183 39.8402V42.5952H16.2731V43.3946H13.2183V46.2067H16.6157V47.0489H12.1763V38.998H16.6157V39.8402H13.2183V39.8402Z" fill="#292F36"/>
<path d="M25.6369 46.0213C25.4513 46.3496 25.1801 46.6208 24.809 46.8207C24.4378 47.0205 23.981 47.1347 23.4243 47.1347C22.8962 47.1347 22.4108 47.0348 21.9969 46.8492C21.5829 46.6494 21.2546 46.3925 20.9977 46.0499C20.755 45.7073 20.6122 45.3219 20.5694 44.8936H21.6828C21.7114 45.122 21.7828 45.3504 21.9112 45.5645C22.0397 45.7786 22.2395 45.9642 22.4822 46.107C22.7249 46.2497 23.0246 46.3211 23.3815 46.3211C23.8383 46.3211 24.1952 46.2069 24.4379 45.9499C24.6805 45.693 24.809 45.3932 24.809 45.0078C24.809 44.6795 24.7233 44.4083 24.552 44.2084C24.3807 44.0086 24.1666 43.8373 23.9239 43.7231C23.6813 43.6089 23.3244 43.4805 22.8962 43.3377C22.3823 43.1664 21.9826 43.0094 21.6686 42.8666C21.3545 42.7239 21.0976 42.4955 20.8835 42.1957C20.6693 41.896 20.5552 41.5106 20.5552 41.0252C20.5552 40.6113 20.6551 40.2401 20.8549 39.9118C21.0548 39.5978 21.3402 39.3408 21.7257 39.1695C22.0968 38.9982 22.5536 38.9126 23.0532 38.9126C23.8383 38.9126 24.4806 39.0982 24.9374 39.4836C25.4085 39.869 25.6654 40.3543 25.7511 40.9539H24.6377C24.5806 40.6398 24.4093 40.3543 24.1523 40.1117C23.8811 39.869 23.5242 39.7405 23.0675 39.7405C22.6535 39.7405 22.3109 39.8547 22.0683 40.0688C21.8113 40.283 21.6971 40.597 21.6971 40.9824C21.6971 41.2964 21.7828 41.5534 21.9398 41.739C22.1111 41.9388 22.3109 42.0815 22.5536 42.1957C22.7963 42.3099 23.1388 42.4241 23.5528 42.5669C24.0667 42.7382 24.4806 42.8952 24.809 43.0522C25.123 43.2092 25.3942 43.4376 25.6083 43.7374C25.8224 44.0372 25.9367 44.4511 25.9367 44.965C25.9081 45.3361 25.8225 45.693 25.6369 46.0213Z" fill="#292F36"/>
<path d="M31.2042 38.998V47.0489H30.1621V38.998H31.2042Z" fill="#292F36"/>
<path d="M41.7387 39.6119C42.381 40.083 42.8093 40.711 43.0234 41.5104H41.9243C41.7387 41.0251 41.4104 40.6254 40.9679 40.3399C40.5253 40.0401 39.9972 39.8974 39.3834 39.8974C38.841 39.8974 38.3413 40.0259 37.9131 40.2828C37.4848 40.5397 37.1423 40.8966 36.8854 41.3677C36.6427 41.8387 36.5142 42.3954 36.5142 43.0378C36.5142 43.6944 36.6427 44.2654 36.8854 44.7365C37.128 45.2075 37.4849 45.5787 37.9274 45.8356C38.3699 46.0925 38.8838 46.221 39.469 46.221C39.9687 46.221 40.4111 46.1068 40.8251 45.907C41.2391 45.6928 41.5674 45.3788 41.8386 44.9791C42.1098 44.5794 42.2526 44.0941 42.3097 43.5517H39.1407V42.7808H43.1804V43.7372C43.109 44.3796 42.9092 44.9506 42.5809 45.4787C42.2526 46.0069 41.8101 46.4066 41.2534 46.7063C40.6967 47.0061 40.0686 47.1631 39.3548 47.1631C38.584 47.1631 37.8988 46.9918 37.2993 46.6492C36.6998 46.3067 36.243 45.8213 35.9147 45.1932C35.5863 44.5794 35.415 43.8657 35.415 43.0663C35.415 42.267 35.5863 41.5532 35.9147 40.9394C36.243 40.3256 36.714 39.826 37.2993 39.4834C37.8845 39.1408 38.5697 38.9553 39.3405 38.9553C40.3112 38.9267 41.0963 39.1551 41.7387 39.6119Z" fill="#292F36"/>
<path d="M53.7152 47.0489H52.6732L48.4907 40.6824V47.0489H47.4487V38.998H48.4907L52.6732 45.3645V38.998H53.7152V47.0489Z" fill="#292F36"/>
<path d="M68.7321 46.0213C68.5466 46.3496 68.2753 46.6208 67.9042 46.8207C67.533 47.0205 67.0763 47.1347 66.5196 47.1347C65.9914 47.1347 65.5061 47.0348 65.0921 46.8492C64.6782 46.6494 64.3498 46.3925 64.0929 46.0499C63.8502 45.7073 63.7075 45.3219 63.6647 44.8936H64.778C64.8066 45.122 64.878 45.3504 65.0065 45.5645C65.135 45.7786 65.3348 45.9642 65.5774 46.107C65.8201 46.2497 66.1199 46.3211 66.4767 46.3211C66.9335 46.3211 67.2904 46.2069 67.533 45.9499C67.7757 45.693 67.9042 45.3932 67.9042 45.0078C67.9042 44.6795 67.8185 44.4083 67.6472 44.2084C67.4759 44.0086 67.2618 43.8373 67.0192 43.7231C66.7765 43.6089 66.4197 43.4805 65.9914 43.3377C65.4776 43.1664 65.0778 43.0094 64.7638 42.8666C64.4497 42.7239 64.1928 42.4955 63.9787 42.1957C63.7646 41.896 63.6504 41.5106 63.6504 41.0252C63.6504 40.6113 63.7503 40.2401 63.9501 39.9118C64.1499 39.5978 64.4355 39.3408 64.8209 39.1695C65.1921 38.9982 65.6488 38.9126 66.1484 38.9126C66.9335 38.9126 67.5759 39.0982 68.0327 39.4836C68.5037 39.869 68.7607 40.3543 68.8463 40.9539H67.7329C67.6758 40.6398 67.5045 40.3543 67.2475 40.1117C66.9763 39.869 66.6195 39.7405 66.1627 39.7405C65.7488 39.7405 65.4062 39.8547 65.1635 40.0688C64.9065 40.283 64.7923 40.597 64.7923 40.9824C64.7923 41.2964 64.878 41.5534 65.035 41.739C65.2063 41.9388 65.4061 42.0815 65.6488 42.1957C65.8914 42.3099 66.234 42.4241 66.648 42.5669C67.1619 42.7382 67.5759 42.8952 67.9042 43.0522C68.2182 43.2092 68.4894 43.4376 68.7035 43.7374C68.9177 44.0372 69.0318 44.4511 69.0318 44.965C69.0033 45.3361 68.9177 45.693 68.7321 46.0213Z" fill="#292F36"/>
<path d="M78.1958 38.998V39.8402H75.9261V47.0489H74.8698V39.8402H72.6001V38.998H78.1958Z" fill="#292F36"/>
<path d="M83.0491 38.998V43.8228C83.0491 44.6079 83.2204 45.1932 83.5772 45.5786C83.9341 45.9497 84.4052 46.1496 85.0333 46.1496C85.6471 46.1496 86.1181 45.964 86.4607 45.5786C86.8033 45.1932 86.9746 44.6222 86.9746 43.8371V39.0123H88.0167V43.8371C88.0167 44.9363 87.7455 45.7642 87.203 46.3066C86.6606 46.8633 85.9325 47.1345 85.019 47.1345C84.1197 47.1345 83.3917 46.8633 82.8493 46.3066C82.3069 45.7499 82.0356 44.9363 82.0356 43.8371V39.0123H83.0491V38.998Z" fill="#292F36"/>
<path d="M98.7656 45.1504C98.4373 45.7499 97.9519 46.221 97.3239 46.5493C96.6815 46.8776 95.925 47.0489 95.04 47.0489H92.4849V38.998H95.04C95.925 38.998 96.6958 39.1551 97.3239 39.4834C97.9519 39.8117 98.4373 40.2685 98.7656 40.8823C99.0939 41.4961 99.251 42.1955 99.251 43.0235C99.251 43.8371 99.0939 44.5508 98.7656 45.1504ZM97.3667 45.3074C97.9234 44.765 98.1947 44.0084 98.1947 43.0235C98.1947 42.0385 97.9234 41.282 97.3667 40.7395C96.81 40.1971 96.0106 39.9259 94.9543 39.9259H93.5126V46.121H94.9543C95.9964 46.121 96.81 45.8498 97.3667 45.3074Z" fill="#292F36"/>
<path d="M104.561 38.998V47.0489H103.519V38.998H104.561Z" fill="#292F36"/>
<path d="M114.782 39.4263C115.381 39.7832 115.852 40.2685 116.195 40.8966C116.538 41.5247 116.709 42.2384 116.709 43.0235C116.709 43.8086 116.538 44.5224 116.195 45.1504C115.852 45.7785 115.381 46.2639 114.782 46.6207C114.182 46.9776 113.511 47.1489 112.769 47.1489C112.027 47.1489 111.342 46.9776 110.742 46.6207C110.143 46.2639 109.657 45.7785 109.315 45.1504C108.972 44.5224 108.801 43.8086 108.801 43.0235C108.801 42.2384 108.972 41.5247 109.315 40.8966C109.657 40.2685 110.128 39.7832 110.742 39.4263C111.356 39.0695 112.027 38.8982 112.769 38.8982C113.511 38.8982 114.182 39.0695 114.782 39.4263ZM111.27 40.2543C110.828 40.5112 110.485 40.8681 110.243 41.3534C110 41.8245 109.871 42.3812 109.871 43.0235C109.871 43.6516 110 44.2083 110.243 44.6937C110.485 45.179 110.828 45.5358 111.27 45.7928C111.713 46.0497 112.198 46.1782 112.755 46.1782C113.297 46.1782 113.797 46.0497 114.239 45.7928C114.682 45.5358 115.024 45.1647 115.267 44.6937C115.51 44.2226 115.638 43.6659 115.638 43.0378C115.638 42.3955 115.51 41.8387 115.267 41.3677C115.024 40.8966 114.682 40.5255 114.239 40.2685C113.797 40.0116 113.311 39.8831 112.755 39.8831C112.212 39.8689 111.713 39.9973 111.27 40.2543Z" fill="#292F36"/>
</svg>
