<svg width="132" height="43" viewBox="0 0 132 43" fill="none" xmlns="http://www.w3.org/2000/svg">
<path d="M11.6337 0V0.18557L10.8629 0.371138V8.59327L11.6337 8.77884V8.96441H7.97946V8.77884L8.7503 8.59327V1.58447L5.7241 9.09288H5.33866L1.41317 1.58447V8.39343L2.44093 8.77884V8.96441H0V8.77884L1.02777 8.39343V0.371138L0.256931 0.18557V0H1.85567C2.09834 0 2.31246 0.0285483 2.48376 0.0856464C2.65505 0.142745 2.82637 0.214117 2.95484 0.314039C3.09758 0.413961 3.21178 0.528159 3.3117 0.65663C3.41162 0.785101 3.49728 0.94212 3.58292 1.09914L6.38072 6.45209L8.5219 1.09914C8.59327 0.913571 8.66466 0.756551 8.76459 0.62808C8.85023 0.499609 8.9644 0.385414 9.09287 0.285492C9.22134 0.18557 9.37839 0.114195 9.56396 0.0713716C9.74952 0.028548 9.9779 0 10.2634 0H11.6337V0Z" fill="#292F36"/>
<path d="M16.2015 2.38403C16.7297 2.38403 17.215 2.45541 17.629 2.61243C18.043 2.76945 18.3998 2.99784 18.6996 3.28333C18.9994 3.58309 19.2135 3.93996 19.3705 4.35392C19.5275 4.76788 19.5989 5.25321 19.5989 5.78137C19.5989 6.30953 19.5275 6.79486 19.3705 7.20882C19.2135 7.62279 18.9851 7.97965 18.6996 8.27942C18.3998 8.57918 18.043 8.7933 17.629 8.95032C17.215 9.10734 16.7297 9.17871 16.2015 9.17871C15.6734 9.17871 15.1881 9.10734 14.7741 8.95032C14.3601 8.7933 14.0033 8.56491 13.7035 8.27942C13.4037 7.97965 13.1896 7.62279 13.0326 7.20882C12.8756 6.79486 12.8042 6.30953 12.8042 5.78137C12.8042 5.25321 12.8756 4.76788 13.0326 4.35392C13.1896 3.93996 13.418 3.58309 13.7035 3.28333C14.0033 2.98356 14.3601 2.76945 14.7741 2.61243C15.1881 2.45541 15.6591 2.38403 16.2015 2.38403ZM16.2015 8.93605C16.3443 8.93605 16.487 8.89322 16.6441 8.7933C16.7868 8.69338 16.9153 8.53636 17.0294 8.29369C17.1436 8.05102 17.2436 7.73698 17.315 7.3373C17.3863 6.92333 17.4291 6.40945 17.4291 5.79565C17.4291 5.16757 17.3863 4.65368 17.315 4.254C17.2436 3.85431 17.1436 3.526 17.0294 3.2976C16.9153 3.06921 16.7868 2.89792 16.6441 2.798C16.5013 2.69807 16.3586 2.65525 16.2015 2.65525C16.0588 2.65525 15.9161 2.69807 15.759 2.798C15.6163 2.89792 15.4878 3.05494 15.3736 3.2976C15.2594 3.54027 15.1595 3.85431 15.0881 4.254C15.0168 4.66796 14.9739 5.18184 14.9739 5.79565C14.9739 6.42373 15.0168 6.93761 15.0881 7.3373C15.1595 7.73698 15.2594 8.0653 15.3736 8.29369C15.4878 8.52208 15.6163 8.69338 15.759 8.7933C15.9018 8.87895 16.0445 8.93605 16.2015 8.93605Z" fill="#292F36"/>
<path d="M25.8369 0C26.6078 0 26.9932 0.385412 26.9932 1.15624V8.60755L27.764 8.79311V8.97868H26.6078C26.2937 8.97868 26.051 8.93586 25.8655 8.83594C25.6799 8.73602 25.5229 8.62182 25.423 8.50762C25.2945 8.36488 25.1946 8.19358 25.1375 8.02229C25.0233 8.25068 24.8805 8.43625 24.7092 8.60755C24.5665 8.75029 24.3666 8.87876 24.124 9.00723C23.8813 9.1357 23.5958 9.1928 23.2675 9.1928C22.8964 9.1928 22.5538 9.12143 22.2397 8.97868C21.9114 8.83594 21.6402 8.62182 21.4118 8.33633C21.1834 8.05084 20.9836 7.69397 20.8551 7.28001C20.7124 6.85178 20.6553 6.36644 20.6553 5.79546C20.6553 5.22448 20.7267 4.73915 20.8551 4.31091C20.9979 3.88267 21.1834 3.54009 21.4404 3.2546C21.683 2.9691 21.9828 2.75499 22.3254 2.61224C22.668 2.46949 23.0534 2.39812 23.4816 2.39812C23.71 2.39812 23.9099 2.42667 24.0954 2.46949C24.281 2.52659 24.438 2.58369 24.5665 2.65506C24.7235 2.72644 24.852 2.81208 24.9662 2.91201V0.413963L24.1954 0.228392V0.0428246H25.8369V0ZM24.9376 3.28314C24.8377 3.18322 24.7521 3.09758 24.6379 3.0262C24.538 2.95483 24.438 2.89773 24.3238 2.84063C24.2096 2.78353 24.0954 2.76926 23.967 2.76926C23.81 2.76926 23.6529 2.81208 23.5102 2.89773C23.3674 2.98338 23.2532 3.12612 23.139 3.34024C23.0391 3.55436 22.9535 3.8684 22.8964 4.25381C22.8393 4.6535 22.8107 5.15311 22.8107 5.78119C22.8107 6.39499 22.8393 6.88033 22.8964 7.26574C22.9535 7.65115 23.0249 7.95092 23.1248 8.16503C23.2104 8.37915 23.3104 8.53617 23.4388 8.60755C23.553 8.67892 23.6672 8.72174 23.7814 8.72174C23.9812 8.72174 24.1525 8.66464 24.2953 8.56472C24.438 8.4648 24.5522 8.33633 24.6521 8.20786C24.7663 8.05084 24.8663 7.87954 24.9519 7.69397V3.28314H24.9376Z" fill="#292F36"/>
<path d="M32.0605 9.19287C30.9614 9.19287 30.1049 8.89311 29.5054 8.29358C28.8916 7.69404 28.5918 6.85185 28.5918 5.79553C28.5918 5.26737 28.6632 4.78204 28.8202 4.36808C28.9772 3.95412 29.1914 3.59725 29.4626 3.29749C29.7338 2.99772 30.0621 2.78361 30.4618 2.62659C30.8472 2.46957 31.2754 2.39819 31.7465 2.39819C32.2318 2.39819 32.6601 2.46957 33.0312 2.59804C33.4166 2.74078 33.7306 2.92635 34.0019 3.15474C34.2731 3.38314 34.4729 3.65435 34.6157 3.96839C34.7584 4.28243 34.8298 4.61075 34.8298 4.96761C34.8298 5.0818 34.8298 5.196 34.8155 5.28165C34.8012 5.3673 34.787 5.45294 34.7727 5.52432C34.7441 5.60996 34.7298 5.68134 34.7013 5.73843C34.3302 5.80981 33.9305 5.88118 33.5022 5.924C33.1454 5.9811 32.7314 6.02392 32.2604 6.05247C31.7893 6.08102 31.304 6.10957 30.7901 6.10957C30.7901 6.63773 30.8329 7.08024 30.9043 7.43711C30.9756 7.79397 31.0898 8.07946 31.2183 8.2793C31.3611 8.49342 31.5181 8.63617 31.7036 8.72181C31.8892 8.80746 32.1034 8.85028 32.3175 8.85028C32.5744 8.85028 32.8171 8.80746 33.0454 8.70754C33.2738 8.60762 33.4737 8.49342 33.6307 8.3364C33.802 8.17938 33.9305 7.99381 34.0304 7.79397C34.1303 7.59413 34.1731 7.39428 34.1731 7.18016H34.4872C34.4872 7.4371 34.4301 7.67977 34.3159 7.92244C34.2017 8.1651 34.0304 8.37922 33.8163 8.56479C33.6022 8.75036 33.3452 8.89311 33.0454 9.0073C32.76 9.13577 32.4316 9.19287 32.0605 9.19287ZM30.7758 5.78126C31.0613 5.78126 31.3182 5.78126 31.5466 5.76698C31.775 5.75271 31.9606 5.73843 32.1176 5.72416C32.3032 5.70989 32.4459 5.68134 32.5744 5.66706C32.5887 5.58141 32.6172 5.48149 32.6315 5.38157C32.6458 5.28165 32.6601 5.18173 32.6743 5.06753C32.6886 4.95333 32.6886 4.82487 32.6886 4.69639C32.6886 4.31098 32.66 3.98267 32.6029 3.72573C32.5458 3.46878 32.4745 3.25466 32.3745 3.08337C32.2889 2.92635 32.189 2.79788 32.0605 2.74078C31.932 2.68368 31.8321 2.64086 31.7179 2.64086C31.6037 2.64086 31.4895 2.68368 31.3753 2.76933C31.2612 2.85498 31.1612 3.012 31.0613 3.22612C30.9757 3.45451 30.89 3.76855 30.8329 4.18251C30.7758 4.59647 30.7758 5.12463 30.7758 5.78126Z" fill="#292F36"/>
<path d="M40.2255 2.82649C39.9686 2.82649 39.7402 2.88359 39.5403 2.98351C39.3405 3.08343 39.1692 3.2119 39.0264 3.34037C38.8694 3.49739 38.7409 3.66869 38.6125 3.85426V8.60768L39.3833 8.79325V8.97882H35.7861V8.79325L36.557 8.60768V2.95496L35.7861 2.76939V2.58382H36.9424C37.2421 2.58382 37.4848 2.64092 37.6846 2.74084C37.8702 2.84077 38.0272 2.95496 38.1414 3.06916C38.2699 3.2119 38.3698 3.36892 38.4269 3.54022C38.5554 3.35465 38.7124 3.18336 38.898 3.02634C39.055 2.89786 39.2549 2.78367 39.4975 2.66947C39.7402 2.55528 40.0114 2.51245 40.3397 2.51245C40.7965 2.51245 41.1391 2.62665 41.3675 2.82649C41.5959 3.04061 41.6958 3.34037 41.6958 3.72579C41.6958 4.01128 41.6101 4.25394 41.4388 4.42524C41.2675 4.59653 41.0249 4.68218 40.7394 4.68218C40.668 4.68218 40.6109 4.68218 40.5395 4.68218C40.4682 4.68218 40.4254 4.66791 40.3825 4.66791C40.3254 4.65363 40.2683 4.65363 40.2255 4.62508V2.82649V2.82649Z" fill="#292F36"/>
<path d="M47.2203 4.49653C47.2203 4.21104 47.1918 3.9541 47.1347 3.73999C47.0776 3.52587 47.0062 3.35457 46.9063 3.2261C46.8207 3.08336 46.7207 2.98343 46.5923 2.92633C46.4781 2.86924 46.3639 2.82641 46.2497 2.82641C46.0498 2.82641 45.8785 2.88351 45.7358 2.98343C45.593 3.08336 45.4646 3.21183 45.3789 3.3403C45.2647 3.49732 45.1791 3.66861 45.0934 3.85418V8.6076L45.8643 8.79317V8.97874H42.2671V8.79317L43.0379 8.6076V2.95488L42.2671 2.76932V2.58375H43.4233C43.7231 2.58375 43.9657 2.64085 44.1656 2.74077C44.3512 2.84069 44.5082 2.95488 44.6224 3.06908C44.7509 3.21183 44.8507 3.36885 44.9078 3.54014C45.022 3.32602 45.1648 3.12618 45.3361 2.95488C45.4789 2.81214 45.6787 2.68367 45.9071 2.5552C46.1355 2.42673 46.4352 2.36963 46.7778 2.36963C47.1489 2.36963 47.4916 2.42673 47.7913 2.5552C48.1054 2.6694 48.3623 2.84069 48.5764 3.02626C48.7905 3.2261 48.9618 3.44022 49.0903 3.69716C49.2188 3.9541 49.2758 4.21104 49.2758 4.48226V8.59333L50.0467 8.77889V8.96447H48.3766C47.6058 8.96447 47.2203 8.57905 47.2203 7.80823V4.49653V4.49653Z" fill="#292F36"/>
<path d="M1.35596 18.0001V17.4719H11.2767V18.0001L9.19266 18.5282V29.3055H16.6725V18.5282L14.5884 18.0001V17.4719H24.5093V18.0001L22.4251 18.5282V40.7965L24.5093 41.3247V41.8528H14.5884V41.3104L16.6725 40.7822V30.1763H9.19266V40.7822L11.2767 41.3104V41.8386H1.35596V41.3104L3.44003 40.7822V18.514L1.35596 18.0001Z" fill="#292F36"/>
<path d="M36.8424 23.9099C38.2842 23.9099 39.5689 24.124 40.7108 24.538C41.8528 24.952 42.8092 25.5658 43.6085 26.3651C44.4079 27.1645 45.0217 28.1352 45.4357 29.2771C45.8496 30.4191 46.0638 31.7038 46.0638 33.1455C46.0638 34.5873 45.8496 35.872 45.4357 37.0139C45.0217 38.1559 44.4079 39.1123 43.6085 39.9117C42.8092 40.711 41.8385 41.3248 40.7108 41.7388C39.5689 42.1528 38.2842 42.3669 36.8424 42.3669C35.4007 42.3669 34.116 42.1528 32.974 41.7388C31.8321 41.3248 30.8757 40.711 30.0763 39.9117C29.2769 39.1123 28.6631 38.1416 28.2492 37.0139C27.8352 35.872 27.6211 34.5873 27.6211 33.1455C27.6211 31.7038 27.8352 30.4191 28.2492 29.2771C28.6631 28.1352 29.2769 27.1788 30.0763 26.3651C30.8757 25.5515 31.8464 24.952 32.974 24.538C34.116 24.124 35.4007 23.9099 36.8424 23.9099ZM36.8424 41.6532C37.2421 41.6532 37.6276 41.5247 38.0272 41.2677C38.4269 41.0108 38.7695 40.5683 39.0835 39.9259C39.3976 39.2836 39.6545 38.4128 39.8544 37.3137C40.0542 36.2146 40.1541 34.8157 40.1541 33.117C40.1541 31.4183 40.0542 30.0194 39.8544 28.9203C39.6545 27.8211 39.3976 26.9504 39.0835 26.308C38.7695 25.6657 38.4127 25.2232 38.0272 24.9662C37.6418 24.7093 37.2421 24.5808 36.8424 24.5808C36.4427 24.5808 36.0574 24.7093 35.6577 24.9662C35.258 25.2232 34.9154 25.6657 34.6013 26.308C34.2873 26.9504 34.0304 27.8211 33.8305 28.9203C33.6307 30.0194 33.5307 31.4183 33.5307 33.117C33.5307 34.8157 33.6307 36.2146 33.8305 37.3137C34.0304 38.4128 34.2873 39.2836 34.6013 39.9259C34.9154 40.5683 35.2723 41.0108 35.6577 41.2677C36.0574 41.5247 36.4427 41.6532 36.8424 41.6532Z" fill="#292F36"/>
<path d="M72.1433 29.6483C72.1433 28.8203 72.072 28.1066 71.9292 27.5499C71.7865 26.9932 71.6152 26.5221 71.3868 26.1653C71.1584 25.8084 70.9157 25.5515 70.6588 25.3802C70.3876 25.2232 70.1306 25.1375 69.8737 25.1375C69.4312 25.1375 69.0458 25.2803 68.7032 25.5657C68.3606 25.8512 68.0751 26.1796 67.8182 26.5221C67.5469 26.9361 67.29 27.4072 67.0902 27.9068V40.7824L69.1885 41.3106V41.8387H59.4533V41.3106L61.5374 40.7824V29.6483C61.5374 28.8203 61.466 28.1066 61.3232 27.5499C61.1805 26.9932 61.0092 26.5221 60.7808 26.1653C60.5524 25.8084 60.3098 25.5515 60.0528 25.3802C59.7816 25.2232 59.5246 25.1375 59.2677 25.1375C58.8252 25.1375 58.4398 25.2803 58.0972 25.5657C57.7546 25.8512 57.4691 26.1796 57.2122 26.5221C56.9267 26.9361 56.684 27.4072 56.4842 27.9068V40.7824L58.5683 41.3106V41.8387H48.833V41.3106L50.9171 40.7824V25.4801L48.833 24.9519V24.4238H51.9591C52.7728 24.4238 53.4437 24.5665 53.9576 24.8377C54.4857 25.109 54.8854 25.423 55.1995 25.737C55.5421 26.1367 55.799 26.565 55.9703 27.0217C56.27 26.4365 56.6412 25.9226 57.0837 25.4515C57.4834 25.0519 57.9687 24.695 58.5397 24.3667C59.125 24.0384 59.8244 23.8813 60.6666 23.8813C62.0512 23.8813 63.2646 24.1954 64.2638 24.8092C65.2773 25.423 66.0481 26.2224 66.5763 27.193C66.8761 26.5935 67.2472 26.0511 67.6897 25.5515C68.0894 25.1375 68.5747 24.7521 69.1457 24.4095C69.7309 24.0669 70.4304 23.8813 71.2726 23.8813C72.229 23.8813 73.0855 24.0384 73.8848 24.3381C74.6699 24.6379 75.3551 25.0519 75.9261 25.58C76.4971 26.1082 76.9396 26.7077 77.2536 27.4072C77.5677 28.1066 77.7247 28.8489 77.7247 29.634V40.7681L79.8088 41.2963V41.8244H75.2837C73.1996 41.8244 72.1576 40.7824 72.1576 38.6983V29.6483H72.1433Z" fill="#292F36"/>
<path d="M91.2857 42.3525C88.3166 42.3525 86.0041 41.5388 84.3626 39.8973C82.721 38.2557 81.8931 36.0146 81.8931 33.1311C81.8931 31.6894 82.1072 30.4047 82.5211 29.2627C82.9351 28.1208 83.5204 27.1644 84.2626 26.3507C85.0049 25.5514 85.9042 24.9375 86.9606 24.5236C88.0169 24.1096 89.1731 23.8955 90.415 23.8955C91.7139 23.8955 92.8845 24.0811 93.9122 24.4522C94.94 24.8234 95.825 25.323 96.5388 25.951C97.2525 26.5791 97.8092 27.3214 98.1946 28.1636C98.58 29.0058 98.7656 29.9051 98.7656 30.8615C98.7656 31.1898 98.7513 31.4753 98.7085 31.718C98.6656 31.9606 98.6371 32.1747 98.58 32.3603C98.5086 32.5887 98.4515 32.7885 98.4087 32.9456C97.3809 33.1597 96.3104 33.331 95.1684 33.4737C94.1977 33.6165 93.07 33.7307 91.7996 33.8449C90.5292 33.9448 89.1874 34.0019 87.8027 34.0019C87.8027 35.4436 87.9027 36.6427 88.1168 37.5991C88.3309 38.5555 88.6164 39.3263 88.9875 39.8973C89.3587 40.4682 89.8012 40.8679 90.315 41.1106C90.8289 41.3533 91.3856 41.4817 91.9852 41.4817C92.6846 41.4817 93.3413 41.3533 93.9551 41.0963C94.5689 40.8394 95.097 40.4968 95.5538 40.0686C96.0106 39.6403 96.3675 39.155 96.6387 38.6126C96.9099 38.0701 97.0384 37.5134 97.0384 36.9567H97.9091C97.9091 37.6562 97.7521 38.3271 97.4381 38.9694C97.124 39.626 96.6815 40.197 96.0962 40.6966C95.511 41.1962 94.8258 41.5959 94.0122 41.8957C93.1843 42.1955 92.2707 42.3525 91.2857 42.3525ZM87.8027 33.1311C88.5878 33.1311 89.2873 33.1169 89.8868 33.074C90.4863 33.0312 91.0002 33.0027 91.4142 32.9598C91.8995 32.917 92.3135 32.8599 92.6704 32.7885C92.7132 32.5602 92.7703 32.3032 92.8417 32.0177C92.8845 31.7608 92.9273 31.4753 92.9558 31.1612C92.9844 30.8472 93.0129 30.5189 93.0129 30.1763C93.0129 29.1343 92.9273 28.2635 92.7703 27.5498C92.6132 26.8361 92.3991 26.2651 92.1565 25.8226C91.9138 25.3801 91.6283 25.066 91.3286 24.8804C91.0145 24.6949 90.7004 24.595 90.4007 24.595C90.1009 24.595 89.7869 24.7092 89.4728 24.9233C89.1588 25.1517 88.8876 25.5656 88.6449 26.1794C88.4023 26.7932 88.2024 27.664 88.0311 28.7774C87.8884 29.8908 87.8027 31.3468 87.8027 33.1311Z" fill="#292F36"/>
<path d="M115.852 41.4818V27.3643L103.376 17.4863V41.4818H115.852Z" fill="#292F36"/>
<path d="M131.283 41.4818V27.3643L119.007 17.4863V41.4818H131.283Z" fill="#292F36"/>
</svg>
