<svg width="145" height="45" viewBox="0 0 145 45" fill="none" xmlns="http://www.w3.org/2000/svg">
<path d="M20.2415 8.82887L21.3121 8.60048C21.5833 8.60048 21.8117 8.65758 21.9687 8.77178C22.1258 8.88597 22.2114 9.00017 22.2114 9.10009C22.2114 9.20001 22.1828 9.35703 22.14 9.5426C22.0972 9.72817 21.6975 11.641 20.9552 15.2524C20.213 18.8639 19.6705 21.5618 19.3279 23.3318C20.9838 21.0764 22.9251 18.3072 25.1377 15.0097C27.3502 11.7123 28.6492 9.52833 29.0204 8.44346C29.1346 8.10087 29.2916 7.84393 29.4771 7.65836C29.6627 7.47279 29.834 7.3586 29.9767 7.33005C30.1195 7.3015 30.3479 7.27295 30.6477 7.27295C30.9474 7.27295 31.3043 7.34432 31.7182 7.47279C32.1322 7.60127 32.3463 7.81538 32.3463 8.12942C32.3463 8.7004 31.4898 10.3705 29.7912 13.1112C28.0925 15.8519 26.1369 18.7639 23.9386 21.8472C21.7403 24.9305 19.9132 27.3715 18.4429 29.1701C18.186 29.4841 17.8577 29.6554 17.4865 29.6554C17.1154 29.6554 16.7157 29.584 16.3017 29.4556C15.8878 29.3271 15.6737 29.0987 15.6737 28.7561C15.6737 27.6855 16.6158 22.5182 18.5 13.2825C16.887 15.3666 14.9314 18.2786 12.6332 22.0043C10.2351 25.8584 8.87898 28.2565 8.56494 29.1701C8.39365 29.7268 8.19381 30.0551 7.96542 30.1408C7.8084 30.2121 7.63709 30.2407 7.4658 30.2407L6.30957 30.3691C6.08117 30.3691 5.88133 30.312 5.68148 30.1836C5.49591 30.0551 5.396 29.9266 5.396 29.7839C5.396 29.3985 5.93844 28.228 7.00903 26.2866C8.07962 24.3453 9.35004 22.2327 10.7918 19.9487C12.2335 17.6648 13.7323 15.4523 15.3025 13.2968C16.8727 11.1414 18.0861 9.68535 18.9425 8.95734C19.1138 8.80032 19.3137 8.72895 19.5421 8.72895L20.2415 8.82887Z" fill="#292F36"/>
<path d="M37.3996 18.507C38.1418 18.507 38.513 18.764 38.513 19.2636C38.513 19.5348 38.4559 19.7346 38.3274 19.8631C38.1989 19.9916 37.9277 20.4055 37.5138 21.1335C37.0998 21.8473 36.643 22.7608 36.1434 23.8885C35.6438 25.0019 35.3155 25.9583 35.1727 26.7434C35.1442 26.8434 35.1299 26.9718 35.1299 27.1574C35.1299 27.6998 35.2727 27.9568 35.5724 27.9568C35.8722 27.9568 36.2148 27.814 36.6145 27.5428C37.0142 27.2573 37.371 26.9718 37.6851 26.6435C37.9991 26.3295 38.2989 26.0012 38.5986 25.6728C38.8984 25.3445 39.0697 25.1447 39.1268 25.1019C39.1839 25.059 39.2695 25.0305 39.3837 25.0305C39.5693 25.0305 39.6835 25.1732 39.7263 25.4587C39.7691 25.7442 39.7834 26.0297 39.7834 26.3438C39.7834 26.6578 39.7549 26.8576 39.6978 26.9718C39.4123 27.5285 38.7985 28.1994 37.8278 28.9845C36.8714 29.7696 35.9864 30.1551 35.2013 30.1551C34.4162 30.1551 33.8309 29.9124 33.4741 29.4413C33.1172 28.9703 32.9174 28.4278 32.9174 27.8569C32.9174 27.2716 33.0173 26.772 33.2171 26.3295C32.4035 27.3858 31.4756 28.2708 30.4336 29.0131C29.3773 29.7411 28.5351 30.1122 27.8642 30.1122C27.1933 30.1122 26.6651 29.9124 26.2369 29.5127C25.6945 29.0131 25.4375 28.3279 25.4375 27.4429C25.4375 26.5579 25.6373 25.6729 26.037 24.7736C26.4367 23.8885 26.9506 23.0606 27.593 22.3326C28.2353 21.5903 28.949 20.9194 29.7199 20.3199C31.3329 19.0495 32.8317 18.4214 34.2021 18.4214C34.7302 18.4214 35.1585 18.507 35.4868 18.6783C35.8151 18.8496 36.0292 19.078 36.1149 19.335C36.3433 18.9781 36.5431 18.764 36.7144 18.6641C36.8429 18.5499 37.0855 18.507 37.3996 18.507ZM35.4582 20.1343C33.7881 20.1343 32.0609 21.0622 30.2766 22.9179C29.6485 23.5888 29.0632 24.3739 28.5208 25.3017C27.9784 26.2296 27.7214 26.8576 27.7214 27.2002C27.7214 27.5428 27.8214 27.7141 28.0212 27.7141C28.2924 27.7141 29.049 27.1717 30.3051 26.1011C31.5613 25.0305 32.3892 24.2311 32.7889 23.7172C33.2457 23.1463 34.1307 21.9472 35.4582 20.1343Z" fill="#292F36"/>
<path d="M48.505 10.7703L49.1045 10.913C49.1901 10.913 49.2758 10.9558 49.3329 11.0415C49.4043 11.1271 49.4328 11.2128 49.4328 11.2841C49.4328 11.3555 49.3329 11.5696 49.1188 11.9122C48.9047 12.2548 48.6763 12.6402 48.3908 13.0685C48.1053 13.4967 47.9625 13.7394 47.9483 13.7822C48.7048 13.7251 49.2472 13.6965 49.5613 13.6965C49.8753 13.6965 50.0894 13.7251 50.2179 13.7679C50.3321 13.8107 50.4748 13.9392 50.6176 14.1391C50.7746 14.3389 50.9031 14.4959 51.0316 14.5958C51.16 14.6958 51.2171 14.8528 51.2171 15.0526C51.2171 15.2525 51.0887 15.438 50.846 15.5665C50.6033 15.7093 50.3321 15.7949 50.0466 15.8235C47.777 16.0518 46.5351 16.166 46.3067 16.1803C45.5216 17.3936 44.4082 19.2779 42.995 21.833C41.5818 24.3882 40.8253 26.0012 40.7396 26.6435C40.6968 26.9433 40.6825 27.1717 40.6825 27.3573C40.6825 27.7427 40.8824 27.9283 41.2821 27.9283C41.6817 27.9283 42.1242 27.7712 42.6096 27.4715C43.0949 27.1574 43.5517 26.8291 43.9514 26.4723C45.0505 25.5016 45.6358 25.002 45.7072 25.002C45.9641 25.002 46.0926 25.4445 46.0926 26.3152C46.0926 26.7863 45.8785 27.2145 45.4359 27.5999C44.451 28.4421 43.6231 29.0845 42.9522 29.5127C42.2813 29.941 41.6104 30.1551 40.9252 30.1551C40.7824 30.1551 40.6397 30.1408 40.5112 30.1123C39.7261 29.9695 39.1551 29.684 38.7983 29.2558C38.4271 28.8276 38.2559 28.2566 38.2559 27.5428C38.2559 26.8291 38.47 25.9441 38.8982 24.9163C39.3264 23.8886 39.8546 22.7894 40.497 21.6332C41.5533 19.7347 42.6096 17.9646 43.6516 16.3088L43.0949 16.3802C41.9672 16.5086 41.3106 16.5657 41.125 16.5657H40.9966C40.7111 16.5657 40.4399 16.5086 40.1829 16.3944C39.926 16.2802 39.7832 16.1375 39.7832 15.9805C39.7832 15.8092 39.8546 15.6522 39.9974 15.4951C40.1401 15.3381 40.2257 15.2096 40.2543 15.124C40.3257 14.9099 40.5826 14.6672 41.0251 14.4103C41.4676 14.1533 41.7959 14.0106 42.0243 13.9963C42.2527 13.982 42.4668 13.9678 42.681 13.9535C42.8951 13.9392 43.1235 13.9392 43.3804 13.9249C43.6374 13.9107 43.8372 13.9107 43.9799 13.8964L45.2932 13.8393C46.1068 12.6117 46.6778 11.8123 46.9776 11.4697C47.2916 11.1129 47.4629 10.9273 47.5058 10.8987C47.5486 10.8702 47.6485 10.8416 47.8055 10.8416L48.505 10.7703Z" fill="#292F36"/>
<path d="M57.2839 25.0307C57.4694 25.0307 57.5836 25.1734 57.6264 25.4589C57.6693 25.7444 57.6835 26.0299 57.6835 26.344C57.6835 26.658 57.655 26.8578 57.5979 26.972C57.3124 27.5145 56.6986 28.1854 55.7422 28.9705C54.7858 29.7556 53.8722 30.1552 53.0158 30.1552C52.4876 30.1552 52.0023 29.9982 51.5455 29.6842C51.103 29.3702 50.8746 28.8134 50.8746 28.0283C50.8746 27.2432 51.0887 26.4581 51.5027 25.7016C49.076 28.7421 47.1917 30.2552 45.8071 30.2552C45.2647 30.2552 44.8222 30.0553 44.4796 29.6699C44.137 29.2845 43.98 28.8848 43.98 28.4566C43.98 28.0426 44.0371 27.6144 44.1513 27.1719C44.2655 26.7294 44.3939 26.3297 44.5224 25.9728C44.6509 25.616 44.8507 25.1877 45.1077 24.6738C45.3646 24.1599 45.5645 23.7888 45.6787 23.5461C45.7928 23.3035 46.007 22.9609 46.2924 22.4898C46.5779 22.0188 46.9348 21.3764 47.3916 20.577C47.8484 19.7777 48.2195 19.1781 48.5193 18.7927C48.819 18.4073 49.1045 18.2075 49.39 18.2075C49.6755 18.2075 49.9182 18.3217 50.1323 18.5501C50.3464 18.7784 50.4606 18.9783 50.4606 19.121C50.4606 19.2638 50.1323 19.9204 49.4757 21.0909C47.5486 24.5882 46.578 26.6152 46.578 27.2004C46.578 27.3432 46.635 27.4145 46.735 27.4145C47.206 27.4145 48.3765 26.401 50.2322 24.3741C52.0879 22.3471 53.1728 21.0481 53.4725 20.4771C53.7723 19.9061 54.0435 19.4208 54.329 19.0354C54.6002 18.65 54.8144 18.4073 54.9571 18.3217C55.3711 18.0504 55.9135 17.9077 56.5844 17.8792C56.6986 17.8792 56.77 17.8792 56.8271 17.8934C56.8842 17.9077 56.9555 17.9933 57.0269 18.1361C57.0983 18.2788 57.1411 18.4073 57.1411 18.5072C57.0555 18.7784 56.67 19.5064 55.9706 20.6912C55.2854 21.876 54.9 22.5469 54.8286 22.6897C53.6724 25.0735 53.1014 26.6294 53.1014 27.3432C53.1014 27.7571 53.2584 27.957 53.5725 27.957C54.1435 27.8856 54.8286 27.4288 55.628 26.6009C55.9278 26.3011 56.2133 25.9871 56.4988 25.673C56.7842 25.359 56.9698 25.1734 57.0269 25.1306C57.0983 25.0592 57.1839 25.0307 57.2839 25.0307Z" fill="#292F36"/>
<path d="M61.5235 21.6475C63.8217 19.0353 65.7916 17.722 67.4046 17.722C67.8043 17.722 68.1326 17.8362 68.3896 18.0789C68.6465 18.3216 68.7749 18.6213 68.7749 19.0067C68.7749 19.3921 68.5037 20.0202 67.9613 20.9195C67.4189 21.8045 66.9193 22.5611 66.4625 23.1749C66.2198 23.4889 65.9486 23.646 65.6346 23.646C65.3348 23.646 65.0921 23.5318 64.9208 23.3034C64.7495 23.075 64.6639 22.818 64.6639 22.5183C64.6639 21.8474 65.0208 21.0765 65.7488 20.2343L65.7202 20.2058C65.3919 20.2343 64.6068 20.8767 63.3221 22.1043C62.0517 23.3462 60.9668 24.4596 60.0675 25.4303C59.1825 26.4152 58.2118 27.6 57.1555 29.0132C56.8557 29.4271 56.5988 29.6413 56.3847 29.6413C56.1705 29.6413 55.8993 29.5699 55.5567 29.4414C55.2141 29.3129 55 29.213 54.9287 29.1559C54.8573 29.0988 54.8145 28.9989 54.8145 28.8562C54.8145 28.7277 54.8573 28.5564 54.9287 28.3851C55 28.1995 55.157 27.9426 55.3569 27.6143C55.5567 27.286 55.885 26.7435 56.3133 26.0013C56.7415 25.259 57.3981 24.1313 58.2974 22.6325C59.1967 21.1336 59.7249 20.2201 59.9105 19.906C60.2816 19.2637 60.5814 18.7926 60.824 18.5071C61.2666 17.9504 62.0088 17.6792 63.0509 17.6792C63.2793 17.6792 63.4077 17.8219 63.4077 18.1217C63.4077 18.5785 62.9795 19.4492 62.1373 20.7054L61.5235 21.6475Z" fill="#292F36"/>
<path d="M77.2684 18.6782C77.2684 19.3206 77.0114 19.8916 76.4833 20.3769C75.9551 20.8622 75.3699 21.1049 74.699 21.1049C74.4848 21.1049 74.3421 21.0478 74.2707 20.9479C74.1993 20.848 74.1708 20.7052 74.1708 20.5482C74.1708 20.3912 74.1851 20.2199 74.2279 20.0629C73.871 20.1771 73.4856 20.3626 73.0574 20.6053C72.6291 20.848 72.101 21.2048 71.4729 21.6902C70.8448 22.1755 70.5308 22.5181 70.5308 22.7608C70.5308 22.8321 70.645 22.8749 70.8734 22.8749C71.1018 22.8749 71.4586 22.7893 71.9297 22.6323C72.4008 22.4753 72.7433 22.3896 72.9289 22.3896C73.1145 22.3896 73.2429 22.4039 73.3 22.4182C73.4285 22.4895 73.557 22.6323 73.714 22.8607C73.8568 23.0891 73.9281 23.2746 73.9281 23.4031C73.9281 23.5316 73.7997 23.7029 73.5427 23.917C73.2858 24.1311 73.0003 24.2881 72.6862 24.4023C72.3579 24.5165 72.1438 24.6022 72.0439 24.6593C69.9884 25.8155 68.9606 26.6006 68.9606 27.0288C68.9606 27.7854 69.6029 28.1708 70.9019 28.1708C71.7299 28.1708 72.5721 27.9139 73.4 27.3857C74.1137 26.9432 74.7561 26.4864 75.327 26.0153C75.898 25.5586 76.2549 25.2731 76.4119 25.1589C76.5689 25.0447 76.6831 25.0019 76.7545 25.0019C77.0114 25.0019 77.1399 25.2873 77.1399 25.8583C77.1399 26.4293 77.1114 26.8004 77.04 26.9717C76.9686 27.1573 76.783 27.3714 76.4547 27.6426C74.3706 29.3413 72.3865 30.1978 70.5308 30.1978C69.5316 30.1978 68.7465 30.055 68.1469 29.7838C67.0478 29.2842 66.5054 28.5277 66.5054 27.4999C66.5054 26.1581 67.4332 25.1303 69.3032 24.4451C68.9321 24.2739 68.6894 24.074 68.5895 23.8028C68.4753 23.5459 68.4324 23.1319 68.4324 22.5609C68.4324 21.9899 68.7037 21.3904 69.2318 20.748C69.76 20.1057 70.4166 19.5775 71.1874 19.1778C72.9004 18.25 74.442 17.7932 75.7838 17.7932C76.1121 17.7932 76.4262 17.8646 76.7688 18.0216C77.1114 18.1786 77.2684 18.3927 77.2684 18.6782Z" fill="#292F36"/>
<path d="M110.585 8.74325H110.77C110.828 8.74325 110.87 8.74325 110.885 8.75753C110.899 8.7718 110.913 8.7718 110.942 8.78608C110.97 8.78608 110.985 8.80035 111.013 8.8289C111.056 8.87172 111.127 8.91455 111.213 8.95737C111.327 9.04302 111.384 9.14294 111.384 9.25714C111.384 9.37133 111.27 9.614 111.042 9.98514C110.813 10.3563 110.228 11.2556 109.272 12.7116C107.088 16.0518 105.132 19.1637 103.405 22.0186C100.421 26.9861 98.9083 29.4842 98.8798 29.5127C98.8512 29.5413 98.8369 29.5698 98.8226 29.5983C98.8084 29.6554 98.7798 29.684 98.7084 29.684L98.5086 29.6412L98.1089 29.7411L97.8805 29.6983L97.6379 29.7411H97.5522L96.7386 29.8553C96.2532 29.8553 96.0106 29.684 96.0106 29.3557C96.0106 29.2129 96.0534 29.0416 96.139 28.8418C96.4388 28.1281 97.9662 25.5444 100.707 21.0622C98.9083 21.105 97.124 21.1335 95.3682 21.1335L92.2278 21.1193C91.7139 21.9472 91.0002 23.1177 90.1009 24.6451C88.1596 27.9711 87.1318 29.6412 87.0033 29.6697C86.8749 29.6983 86.7749 29.7268 86.6893 29.7268C86.6036 29.7268 86.5323 29.684 86.4752 29.5841C86.4038 29.4984 86.361 29.4413 86.3324 29.4413C86.3039 29.4413 86.261 29.4556 86.1754 29.4984C86.104 29.5412 85.9898 29.5555 85.8328 29.5555L85.4902 29.5413L85.3618 29.4556C85.3475 29.4556 85.3332 29.4699 85.3189 29.4984C85.3047 29.527 85.2618 29.5413 85.2047 29.5413C84.7908 29.5413 84.5767 29.37 84.5767 29.0131C84.5767 28.7847 84.6623 28.4707 84.8193 28.0852C84.9906 27.6998 85.2047 27.2859 85.476 26.8434C85.7472 26.4009 86.4323 25.3303 87.56 23.6601C88.6734 21.99 89.2302 21.1478 89.2302 21.1335C89.0446 21.1193 88.8305 21.1193 88.5878 21.105C88.0882 21.105 87.7456 21.0907 87.5315 21.0479C86.9748 20.948 86.5894 20.4912 86.3895 19.6775C86.2753 19.2779 86.2325 19.0209 86.2468 18.8924C86.2468 18.6355 86.361 18.4928 86.5894 18.4928L86.9748 18.5927C87.1746 18.607 87.6314 18.6212 88.3737 18.6641C89.116 18.7069 89.6441 18.7212 89.9724 18.7212L90.8004 18.6926C92.0708 16.7084 93.5839 14.4531 95.3539 11.9407C94.0692 12.9971 92.6418 13.5252 91.0716 13.5252C90.3293 13.5252 89.6869 13.3539 89.1588 12.9971C88.6163 12.6402 88.3594 12.1834 88.3594 11.641C88.3594 11.0986 88.5593 10.6703 88.9732 10.342C89.3872 10.028 89.7726 9.87094 90.1437 9.87094C90.5149 9.87094 90.7004 9.92804 90.7004 10.0422C90.7004 10.0851 90.6433 10.1279 90.5434 10.1707C90.4435 10.2278 90.3864 10.2706 90.3864 10.3135C90.3864 10.4705 90.5577 10.6132 90.9003 10.7274C91.2429 10.8416 91.6283 10.913 92.0565 10.913C92.4847 10.913 92.9986 10.7845 93.6267 10.5418C94.2548 10.2992 94.8971 9.97086 95.568 9.58545C96.5102 9.04302 97.2524 8.58623 97.7949 8.22937C98.1089 8.07235 98.3944 8.00098 98.6799 8.00098C98.9654 8.00098 99.151 8.02953 99.2794 8.1009C99.4079 8.158 99.4935 8.22937 99.5506 8.28647C99.6077 8.34357 99.6791 8.42921 99.7362 8.52914C99.8076 8.62906 99.8647 8.7147 99.9361 8.75753C99.9932 8.81463 100.036 8.87172 100.036 8.9431C100.036 9.01447 99.9932 9.11439 99.9218 9.27141C99.8504 9.41416 99.4793 10.0137 98.8084 11.0557C98.1375 12.0978 97.2667 13.4253 96.2104 15.0383C95.1541 16.6513 94.3833 17.8361 93.8979 18.607C96.5102 18.607 99.3223 18.5641 102.348 18.4642C106.031 12.6545 107.973 9.614 108.172 9.32851C108.372 9.04302 108.558 8.85745 108.729 8.7718C108.9 8.68616 109.1 8.64333 109.343 8.64333L110.585 8.74325Z" fill="#292F36"/>
<path d="M115.353 18.4784C115.652 18.4784 115.952 18.6069 116.252 18.8781C116.566 19.1493 116.709 19.549 116.709 20.0914C116.709 20.6339 116.523 21.3333 116.138 22.2041C115.752 23.0605 115.238 23.9456 114.567 24.8449C113.911 25.7299 113.169 26.5721 112.383 27.3572C111.584 28.1423 110.728 28.7846 109.814 29.2842C108.886 29.7838 108.058 30.0408 107.302 30.0408C106.545 30.0408 105.946 29.7981 105.489 29.3271C105.032 28.856 104.804 28.1994 104.804 27.3572C104.804 26.515 105.018 25.5729 105.432 24.5594C105.846 23.5316 106.374 22.6323 107.031 21.8472C107.687 21.0621 108.387 20.3626 109.157 19.7346C110.742 18.4499 112.141 17.8218 113.34 17.8218C113.882 17.8218 114.282 17.9503 114.553 18.2215C114.653 18.3071 114.696 18.3928 114.696 18.4499V18.5355C114.853 18.4784 115.067 18.4784 115.353 18.4784ZM113.882 20.4197H113.782C113.44 20.4197 113.268 20.1771 113.268 19.6775C112.555 19.9059 111.813 20.3198 111.027 20.9051C110.242 21.4903 109.543 22.1898 108.929 22.9892C107.673 24.5879 107.045 25.944 107.031 27.0431C107.031 27.5856 107.23 27.8568 107.63 27.8568C108.03 27.8568 108.629 27.5856 109.414 27.0717C110.199 26.5578 110.985 25.8012 111.77 24.8163C112.541 23.8456 113.126 22.9892 113.511 22.2754C113.897 21.5617 114.096 21.0764 114.096 20.8052C114.082 20.5482 114.011 20.4197 113.882 20.4197Z" fill="#292F36"/>
<path d="M116.395 29.7125L115.681 29.6839H115.424C115.324 29.6554 115.224 29.5983 115.11 29.5127C114.996 29.427 114.91 29.3556 114.853 29.3271C114.796 29.2985 114.768 29.2129 114.768 29.113C114.768 29.013 114.81 28.8275 114.882 28.5848C116.78 24.4024 118.622 21.0479 120.406 18.5498C120.606 18.2786 120.92 18.0645 121.348 17.9217C121.776 17.779 122.205 17.7076 122.619 17.7076C122.861 17.7076 122.99 17.8932 122.99 18.2786C122.99 18.3928 122.947 18.5355 122.876 18.7068C122.804 18.8924 122.604 19.1779 122.29 19.5918C121.976 20.0058 121.605 20.4769 121.177 20.9908C120.749 21.5046 120.506 21.8187 120.449 21.9043C121.791 20.5197 122.99 19.4919 124.075 18.8068C125.159 18.1358 125.93 17.7933 126.416 17.7933C126.901 17.7933 127.272 17.936 127.529 18.2072C127.786 18.4784 127.914 18.7782 127.914 19.0922C127.914 19.4063 127.886 19.6775 127.843 19.8773C127.8 20.0915 127.715 20.3056 127.6 20.534C127.486 20.7624 127.386 20.9622 127.301 21.1192C127.215 21.2762 127.072 21.4904 126.887 21.7473C126.687 22.0042 126.558 22.1898 126.487 22.2897C126.416 22.3897 126.259 22.5752 126.03 22.8464C125.802 23.1177 125.673 23.2747 125.659 23.3032C125.93 23.032 126.316 22.6323 126.801 22.0899C127.286 21.5475 127.7 21.105 128.043 20.7481C128.385 20.3912 128.799 19.9773 129.313 19.5205C129.827 19.0637 130.298 18.6926 130.727 18.4213C131.783 17.7647 132.853 17.4221 133.938 17.4221C134.309 17.4221 134.623 17.5363 134.88 17.779C135.137 18.0216 135.266 18.2929 135.266 18.6212C135.266 18.9495 134.866 19.7346 134.081 20.9622C133.296 22.1898 132.497 23.4317 131.711 24.6736C130.926 25.9155 130.527 26.7006 130.527 27.0289C130.527 27.4714 130.612 27.7426 130.769 27.8283C130.941 27.9139 131.14 27.9425 131.369 27.9282C131.597 27.9139 131.94 27.7569 132.354 27.4714C132.782 27.1859 133.153 26.9004 133.481 26.5864C134.024 26.101 134.509 25.63 134.98 25.1732C135.08 25.0875 135.18 25.0447 135.309 25.0447C135.494 25.0447 135.608 25.1875 135.651 25.473C135.694 25.7584 135.708 26.0439 135.708 26.358C135.708 26.672 135.68 26.8719 135.623 26.9861C135.337 27.5285 134.709 28.1994 133.753 28.9988C132.782 29.7839 131.854 30.1836 130.969 30.1836C130.855 30.1836 130.784 30.1836 130.741 30.1693C129.742 30.0694 129.042 29.7981 128.657 29.3414C128.271 28.8846 128.086 28.3421 128.086 27.7283C128.086 27.1145 128.3 26.3437 128.728 25.4587C129.156 24.5737 129.613 23.76 130.127 23.0463C130.641 22.3326 131.098 21.6759 131.526 21.0907C131.954 20.5054 132.168 20.1914 132.168 20.1486C132.168 20.1057 132.125 20.0772 132.054 20.0772C131.754 20.0772 131.083 20.5625 130.027 21.5475C128.243 23.2176 126.701 24.8306 125.402 26.3723C125.06 26.7862 124.246 27.814 122.975 29.4841C122.833 29.6839 122.59 29.7839 122.276 29.7839C121.962 29.7839 121.634 29.7268 121.291 29.5983C120.948 29.4698 120.777 29.3128 120.777 29.1272C120.777 29.0273 121.548 27.657 123.104 25.0162C124.66 22.3754 125.431 20.9337 125.431 20.7053C125.431 20.4626 125.288 20.3484 125.002 20.3484C124.717 20.3484 124.117 20.7766 123.218 21.6331C120.749 23.9884 118.836 26.3437 117.48 28.6705C117.394 28.8132 117.223 29.0273 116.966 29.3128C116.709 29.5983 116.481 29.7125 116.395 29.7125Z" fill="#292F36"/>
<path d="M144.701 18.6782C144.701 19.3206 144.444 19.8916 143.916 20.3769C143.388 20.8622 142.802 21.1049 142.132 21.1049C141.917 21.1049 141.775 21.0478 141.703 20.9479C141.632 20.848 141.603 20.7052 141.603 20.5482C141.603 20.3912 141.618 20.2199 141.66 20.0629C141.304 20.1771 140.918 20.3626 140.49 20.6053C140.062 20.848 139.534 21.2048 138.906 21.6902C138.277 22.1755 137.963 22.5181 137.963 22.7608C137.963 22.8321 138.078 22.8749 138.306 22.8749C138.534 22.8749 138.891 22.7893 139.362 22.6323C139.833 22.4753 140.176 22.3896 140.362 22.3896C140.547 22.3896 140.676 22.4039 140.733 22.4182C140.861 22.4895 140.99 22.6323 141.147 22.8607C141.289 23.0891 141.361 23.2746 141.361 23.4031C141.361 23.5316 141.232 23.7029 140.975 23.917C140.718 24.1311 140.433 24.2881 140.119 24.4023C139.791 24.5165 139.576 24.6022 139.476 24.6593C137.421 25.8155 136.393 26.6006 136.393 27.0288C136.393 27.7854 137.036 28.1708 138.335 28.1708C139.162 28.1708 140.005 27.9139 140.833 27.3857C141.546 26.9432 142.189 26.4864 142.76 26.0153C143.331 25.5586 143.687 25.2731 143.845 25.1589C144.002 25.0447 144.116 25.0019 144.187 25.0019C144.444 25.0019 144.573 25.2873 144.573 25.8583C144.573 26.4293 144.544 26.8004 144.473 26.9717C144.401 27.1573 144.216 27.3714 143.887 27.6426C141.803 29.3413 139.819 30.1978 137.963 30.1978C136.964 30.1978 136.179 30.055 135.58 29.7838C134.48 29.2842 133.938 28.5277 133.938 27.4999C133.938 26.1581 134.866 25.1303 136.736 24.4451C136.365 24.2739 136.122 24.074 136.022 23.8028C135.908 23.5459 135.865 23.1319 135.865 22.5609C135.865 21.9899 136.136 21.3904 136.664 20.748C137.193 20.1057 137.849 19.5775 138.62 19.1778C140.333 18.25 141.875 17.7932 143.216 17.7932C143.545 17.7932 143.859 17.8646 144.201 18.0216C144.544 18.1786 144.701 18.3927 144.701 18.6782Z" fill="#292F36"/>
<path d="M0 33.6666C3.7542 35.2368 7.57977 36.4501 11.4767 37.378C15.3451 38.3486 19.2849 39.0338 23.2247 39.462C25.1946 39.7332 27.1787 39.7618 29.1343 39.9474C31.1185 39.9616 33.0884 40.1187 35.0583 40.0045L38.0131 39.9331C38.998 39.9188 39.983 39.7903 40.9679 39.7333C41.9529 39.6476 42.9378 39.6048 43.9085 39.4763L46.8347 39.0623C50.7602 38.6341 54.5715 37.7205 58.3686 36.6214C62.2084 35.5651 65.8342 34.1662 69.674 32.7102C73.5995 31.2684 77.8533 30.3263 82.1642 30.7831C84.2911 31.0543 86.4323 31.7395 88.1738 32.9957C89.9296 34.2376 91.1857 36.0076 91.9851 37.8633C90.786 36.2074 89.2872 34.8514 87.56 34.0092C85.8328 33.167 83.9343 32.8244 82.05 32.8815C78.2387 32.9386 74.4845 34.209 70.9587 35.8078C67.3758 37.5778 63.4931 39.1765 59.5819 40.5041C55.6421 41.7745 51.5739 42.788 47.4485 43.3019C39.2407 44.3868 30.833 44.401 22.7251 42.7595C18.6568 42.0172 14.6885 40.8609 10.8486 39.3907C7.03733 37.8633 3.31169 36.079 0 33.6666Z" fill="#292F36"/>
<path d="M136.507 9.89958C133.324 8.5435 130.084 7.48718 126.801 6.65926C123.532 5.78851 120.22 5.17471 116.894 4.74648C115.238 4.48953 113.554 4.43243 111.898 4.23259C110.228 4.18977 108.572 4.01847 106.902 4.08985C106.074 4.10412 105.232 4.10412 104.404 4.08985C103.576 4.08985 102.734 4.17549 101.906 4.20404C101.078 4.26114 100.236 4.27542 99.4077 4.36106L96.9239 4.66083C93.598 4.93204 90.3719 5.61722 87.1459 6.45942C83.877 7.24452 80.7794 8.35793 77.482 9.47135C74.0989 10.599 70.4304 11.2842 66.7476 10.7703C64.9347 10.4706 63.1076 9.82821 61.6658 8.68624C60.1955 7.55856 59.1963 6.01691 58.5825 4.40388C59.596 5.81706 60.8522 6.9733 62.2939 7.68703C63.7356 8.40076 65.3201 8.70052 66.9046 8.68624C70.1021 8.68624 73.271 7.65848 76.2687 6.37377C79.3234 4.91777 82.6779 3.63306 86.0182 2.57675C89.387 1.56325 92.8985 0.792428 96.41 0.421291C103.419 -0.320985 110.585 -0.149691 117.451 1.47761C120.891 2.20561 124.245 3.31902 127.457 4.68938C130.683 6.08828 133.795 7.71558 136.507 9.89958Z" fill="#292F36"/>
</svg>
