<svg width="103" height="103" viewBox="0 0 103 103" fill="none" xmlns="http://www.w3.org/2000/svg">
<path d="M51.1601 101.606C79.0207 101.606 101.606 79.0205 101.606 51.1598C101.606 23.2992 79.0207 0.713623 51.1601 0.713623C23.2994 0.713623 0.713867 23.2992 0.713867 51.1598C0.713867 79.0205 23.2994 101.606 51.1601 101.606Z" fill="white"/>
<path d="M51.1599 102.32C22.9535 102.32 0 79.3664 0 51.1599C0 22.9535 22.9535 0 51.1599 0C79.3664 0 102.32 22.9535 102.32 51.1599C102.32 79.3664 79.3664 102.32 51.1599 102.32ZM51.1599 1.42745C23.7386 1.42745 1.42745 23.7386 1.42745 51.1599C1.42745 78.5813 23.7386 100.892 51.1599 100.892C78.5813 100.892 100.892 78.5813 100.892 51.1599C100.892 23.7386 78.5813 1.42745 51.1599 1.42745Z" fill="#292F36"/>
<path d="M58.3543 5.83827C58.6969 5.86682 58.9967 5.88109 59.2394 5.88109L59.2108 6.10949C58.8111 6.16658 58.4685 6.46635 58.1973 7.03733L54.8 13.832L54.7001 13.8177L54.6144 13.8035L52.459 6.22368C52.3162 5.72407 52.0735 5.45286 51.731 5.41003L51.7595 5.18164C52.0735 5.23874 52.4875 5.28156 53.0014 5.33866C53.6723 5.39576 54.1719 5.43858 54.5002 5.43858L54.4717 5.66697C54.1719 5.6527 53.9578 5.66697 53.8293 5.7098C53.7008 5.75262 53.6295 5.86682 53.6152 6.00956C53.6009 6.13803 53.6295 6.3236 53.7008 6.56627L55.2853 12.3617L57.6406 7.62259C57.8405 7.23717 57.9404 6.92313 57.9689 6.69474C57.9975 6.45207 57.9261 6.26651 57.7691 6.13803C57.6121 6.00956 57.3551 5.93819 57.0125 5.89537L57.0411 5.66697C57.455 5.73835 57.8976 5.79545 58.3543 5.83827Z" fill="#292F36"/>
<path d="M67.9469 8.85021C67.8041 8.85021 67.6899 8.90731 67.6043 9.02151C67.5186 9.13571 67.4187 9.32127 67.3188 9.59249L65.2775 15.0168C65.1776 15.288 65.1205 15.5021 65.1205 15.6449C65.1205 15.7876 65.1634 15.9018 65.2633 15.9875C65.3632 16.0731 65.5488 16.1731 65.8057 16.2872L65.7201 16.5014C65.3917 16.3586 64.935 16.1731 64.3497 15.9447C63.7216 15.702 63.2506 15.545 62.9365 15.4451L63.0222 15.2309C63.2934 15.3166 63.4932 15.3594 63.6217 15.3594C63.7502 15.3594 63.8786 15.3023 63.9643 15.1881C64.0499 15.0739 64.1499 14.8883 64.2498 14.6171L66.291 9.1928C66.391 8.92159 66.4481 8.70747 66.4481 8.56472C66.4481 8.42198 66.4052 8.30778 66.3053 8.22214C66.2054 8.13649 66.0198 8.03657 65.7629 7.92237L65.8485 7.70825C66.1483 7.83672 66.6051 8.02229 67.2332 8.26496C67.8184 8.49335 68.2895 8.65037 68.6321 8.75029L68.5464 8.96441C68.2895 8.87876 68.0896 8.83594 67.9469 8.85021Z" fill="#292F36"/>
<path d="M80.6515 16.4015C80.5088 16.373 80.366 16.4158 80.2376 16.5014C80.1091 16.5871 79.9521 16.7584 79.7808 17.001L75.6412 22.6109L75.427 22.4539L75.9837 13.4324L72.3152 18.3999C72.1439 18.6426 72.0297 18.8424 71.9726 18.9995C71.9155 19.1565 71.9441 19.2992 72.0154 19.442C72.0868 19.5847 72.2581 19.7417 72.5008 19.9416L72.358 20.1272C72.1439 19.9416 71.8299 19.6989 71.4159 19.3849C71.0448 19.1137 70.745 18.8995 70.5166 18.7711L70.6593 18.5855C70.8877 18.7425 71.0733 18.8282 71.2161 18.8424C71.3588 18.871 71.5015 18.8282 71.63 18.7425C71.7585 18.6426 71.9155 18.4856 72.0868 18.2429L75.4556 13.6751C75.6269 13.4324 75.7411 13.2468 75.7839 13.1184C75.8267 12.9899 75.8125 12.8614 75.7411 12.7472C75.6697 12.633 75.527 12.4903 75.2986 12.3047L75.4413 12.1191C75.6269 12.2904 75.9124 12.5188 76.2978 12.79C76.5833 13.0042 76.8259 13.1755 77.0543 13.3039L76.5976 20.8694L79.5667 16.844C79.738 16.6013 79.8664 16.4015 79.9092 16.2445C79.9521 16.0875 79.9378 15.9447 79.8664 15.802C79.795 15.6592 79.6238 15.4879 79.3811 15.3024L79.5238 15.1168C79.7379 15.3024 80.052 15.545 80.4659 15.8591C80.8371 16.1303 81.1369 16.3444 81.3652 16.4729L81.2225 16.6584C80.9798 16.5157 80.7943 16.4158 80.6515 16.4015Z" fill="#292F36"/>
<path d="M85.4333 22.8391C85.8044 22.5679 86.1898 22.2681 86.6038 21.897C86.9607 22.4394 87.5887 23.3387 88.488 24.6091C89.3873 25.8653 90.0297 26.7503 90.4151 27.2642C89.9298 27.5497 89.5158 27.8066 89.1447 28.0636C88.8306 28.292 88.5737 28.4918 88.3881 28.6488L88.2311 28.4347C88.6879 28.035 89.0019 27.7067 89.1875 27.464C89.3731 27.2214 89.4444 26.9644 89.4302 26.6932C89.4159 26.422 89.2446 26.0937 88.9734 25.694L88.6022 25.1801L83.1922 29.0342C82.9352 29.2198 82.7497 29.3911 82.664 29.5196C82.5784 29.648 82.5498 29.8051 82.6069 29.9764C82.6497 30.1334 82.7782 30.3618 82.9638 30.6473L82.7782 30.79C82.5641 30.4474 82.2358 29.9621 81.8076 29.3768C81.3508 28.7345 81.0082 28.2777 80.7798 27.9922L80.9654 27.8495C81.1795 28.1207 81.3508 28.3062 81.4935 28.4062C81.6363 28.5061 81.779 28.5346 81.936 28.4918C82.093 28.449 82.3072 28.3348 82.5641 28.1492L87.9742 24.2951L87.603 23.7812C87.3175 23.3815 87.0606 23.1389 86.8179 23.0247C86.5752 22.9105 86.304 22.8962 86.0185 22.9961C85.733 23.096 85.3191 23.2816 84.7909 23.5814L84.6339 23.3673C84.848 23.2531 85.105 23.0818 85.4333 22.8391Z" fill="#292F36"/>
<path d="M88.1741 42.6523L87.9457 42.7237C87.8601 42.4096 87.7459 42.0099 87.5746 41.5246C87.3605 40.8965 87.1892 40.4255 87.0607 40.1114L87.2891 40.04C87.389 40.3113 87.5032 40.5111 87.5889 40.611C87.6888 40.711 87.8172 40.7395 87.96 40.6824C88.0885 40.6396 88.2455 40.5397 88.431 40.3826L90.0155 39.0837L89.1162 36.4143L87.7887 36.3572C87.3605 36.3287 87.0321 36.3572 86.8038 36.4429C86.5754 36.5285 86.4326 36.657 86.3755 36.8426C86.3327 37.0281 86.3612 37.2993 86.4612 37.6277L86.2328 37.699C86.1186 37.2708 85.9758 36.8426 85.8331 36.4143C85.7189 36.086 85.619 35.8148 85.519 35.6007L85.7474 35.5293C85.9473 35.8719 86.3755 36.0575 87.0036 36.0717L94.5976 36.4143L94.6547 36.5856L88.6023 41.6245C88.2312 41.9814 88.0885 42.3097 88.1741 42.6523ZM93.1274 36.5856L89.3874 36.4286L90.2296 38.9409L93.1274 36.5856Z" fill="#292F36"/>
<path d="M89.2161 53.5724C89.3589 53.5153 89.4302 53.4439 89.4302 53.344C89.4302 53.2869 89.416 53.2441 89.3874 53.2013C89.3589 53.1584 89.3018 53.0728 89.2161 52.9586C89.002 52.6874 88.845 52.4019 88.7308 52.1164C88.6166 51.8309 88.5595 51.5026 88.5595 51.1457C88.5452 50.3464 88.7022 49.6612 89.0163 49.0759C89.3446 48.4907 89.8014 48.0481 90.4294 47.7341C91.0433 47.4201 91.7855 47.263 92.6563 47.2488C93.5556 47.2345 94.3407 47.3772 95.0116 47.6913C95.6825 48.0053 96.2106 48.4336 96.5818 49.0045C96.9529 49.5755 97.1528 50.2179 97.1528 50.9316C97.1528 51.2456 97.1242 51.5311 97.0671 51.7738C97.01 52.0165 96.9244 52.2306 96.8244 52.4162C96.7245 52.6017 96.5961 52.8158 96.4248 53.0442C96.3534 53.1442 96.3106 53.2298 96.3106 53.2869C96.3106 53.4297 96.5532 53.5296 97.0243 53.5724V53.8436C96.5247 53.8151 95.6254 53.8151 94.3407 53.8436V53.5724C94.7546 53.501 95.0972 53.4154 95.3684 53.3297C95.6397 53.2441 95.8681 53.1156 96.0679 52.9586C96.3391 52.7302 96.5675 52.4304 96.7245 52.0593C96.8815 51.6882 96.9529 51.317 96.9529 50.9173C96.9386 50.4034 96.7673 49.9609 96.4248 49.5755C96.0822 49.1901 95.5968 48.9046 94.983 48.6905C94.3549 48.4907 93.6412 48.3907 92.8133 48.405C91.8712 48.4193 91.1146 48.5335 90.5151 48.7476C89.9156 48.9617 89.4873 49.2758 89.2018 49.6897C88.9164 50.1037 88.7879 50.6318 88.8022 51.2742C88.8164 51.7453 88.9449 52.1449 89.1876 52.4875C89.2875 52.6303 89.3731 52.7159 89.4731 52.7587C89.5587 52.8016 89.6872 52.8158 89.8442 52.8158L90.9719 52.8016C91.3002 52.8016 91.5286 52.7587 91.6856 52.7016C91.8284 52.6445 91.9426 52.5304 91.9854 52.3591C92.0425 52.202 92.071 51.9451 92.071 51.6025H92.2994C92.2851 51.9879 92.2709 52.5304 92.2851 53.2584C92.2994 53.8008 92.3137 54.2147 92.3422 54.4717H92.1138C92.0996 54.2861 92.0567 54.1577 92.0139 54.0863C91.9711 54.0149 91.8712 53.9578 91.7427 53.9293C91.6142 53.9007 91.4001 53.8864 91.1004 53.9007L88.7879 53.9435V53.7151C88.9164 53.658 89.0734 53.6295 89.2161 53.5724Z" fill="#292F36"/>
<path d="M87.5175 65.72C87.1036 65.5915 86.6182 65.463 86.0615 65.3488C86.2471 64.8492 86.5183 64.007 86.9037 62.8079C87.3605 61.3805 87.6888 60.2956 87.8887 59.5676L88.1171 59.639C88.0457 59.9102 88.0171 60.1101 88.0171 60.2528C88.0314 60.3955 88.0885 60.4955 88.2027 60.5811C88.3169 60.6668 88.5167 60.7524 88.788 60.8381L94.3122 62.5796C94.5977 62.6652 94.7975 62.708 94.9403 62.708C95.083 62.708 95.1972 62.6509 95.2829 62.5367C95.3685 62.4225 95.4542 62.237 95.5541 61.98L95.7825 62.0514C95.5255 62.7794 95.183 63.85 94.7262 65.2774C94.3836 66.3623 94.1409 67.1474 94.0267 67.6185C93.5557 67.4186 93.1274 67.2473 92.7277 67.1331C92.4422 67.0475 92.1996 66.9761 92.0283 66.9476L92.1139 66.6906C92.6135 66.7905 92.9989 66.8334 93.2559 66.8334C93.5128 66.8334 93.7269 66.7477 93.8982 66.5764C94.0695 66.4194 94.2123 66.1339 94.3407 65.7485L94.6262 64.8207C94.7119 64.5494 94.7547 64.3496 94.7404 64.2211C94.7262 64.0927 94.6833 63.9785 94.5691 63.8928C94.4549 63.8072 94.2694 63.7215 93.9839 63.6359L91.3574 62.8079L91.129 63.5502C91.0148 63.9214 91.0433 64.2069 91.2289 64.4067C91.4145 64.6065 91.6143 64.7493 91.8427 64.8492C92.0711 64.9491 92.2138 65.0205 92.2709 65.049L92.1853 65.306C91.8284 65.1632 91.4858 65.0348 91.1433 64.9349L90.6151 64.7778C90.244 64.6636 89.7015 64.5066 89.0164 64.3496L89.102 64.0927C89.1591 64.1069 89.3447 64.1355 89.6587 64.2069C89.9727 64.2639 90.244 64.2354 90.4581 64.1212C90.6722 64.007 90.8149 63.7929 90.9149 63.4931L91.1433 62.7508L88.4596 61.9087C88.1742 61.823 87.9743 61.7802 87.8316 61.7802C87.6888 61.7802 87.5746 61.8373 87.5032 61.9515C87.4176 62.0657 87.332 62.2512 87.2463 62.5225L86.9894 63.3361C86.8466 63.8072 86.7895 64.1783 86.8466 64.4495C86.8894 64.735 87.0322 64.9634 87.2749 65.1632C87.5175 65.3488 87.8887 65.5629 88.3883 65.7913L88.3026 66.0483C88.1313 65.9198 87.8601 65.8342 87.5175 65.72Z" fill="#292F36"/>
<path d="M83.4489 83.2349C83.506 83.1064 83.4918 82.978 83.4347 82.8495C83.3776 82.721 83.2348 82.564 83.0207 82.3499L78.824 78.3387C78.6099 78.1389 78.4386 78.0104 78.3101 77.9533C78.1816 77.8962 78.0532 77.8962 77.9247 77.9533C77.7962 78.0104 77.6392 78.1389 77.4394 78.3387L77.2681 78.1817C77.5393 77.939 77.8819 77.5822 78.3244 77.1397C78.7812 76.6543 79.1238 76.2832 79.3379 76.0405L79.5092 76.1975C79.3236 76.4117 79.2094 76.583 79.1523 76.6972C79.0952 76.8256 79.1095 76.9541 79.1666 77.0826C79.2237 77.211 79.3664 77.3681 79.5805 77.5822L83.7773 81.5933C83.9914 81.7932 84.1627 81.9216 84.2911 81.9787C84.4196 82.0358 84.5481 82.0358 84.6765 81.9787C84.805 81.9216 84.962 81.7932 85.1619 81.5933L85.3332 81.7503C85.0905 81.9645 84.7336 82.3213 84.2769 82.8067C83.8344 83.2634 83.506 83.6346 83.2776 83.9058L83.1064 83.7488C83.2776 83.5347 83.3918 83.3634 83.4489 83.2349Z" fill="#292F36"/>
<path d="M71.5584 91.9422C71.6441 91.8138 71.6583 91.6853 71.6298 91.5283C71.6012 91.3713 71.5013 91.1714 71.3443 90.9002L67.8042 84.8906L68.0326 84.7479L76.112 88.7876L72.9859 83.4774C72.8288 83.2205 72.7004 83.0349 72.5719 82.935C72.4434 82.8351 72.3007 82.7923 72.1437 82.8065C71.9866 82.8208 71.7725 82.9065 71.5013 83.0492L71.3728 82.8494C71.6298 82.7352 71.9724 82.5353 72.4149 82.2784C72.8146 82.0357 73.1143 81.8501 73.3284 81.6931L73.4426 81.893C73.2142 82.0357 73.0572 82.1784 72.9859 82.3069C72.9002 82.4354 72.8859 82.5639 72.9145 82.7209C72.943 82.8779 73.043 83.0777 73.2 83.349L76.0834 88.2451C76.2262 88.5021 76.3546 88.6734 76.4688 88.759C76.583 88.8447 76.6972 88.8875 76.84 88.8589C76.9685 88.8304 77.1683 88.759 77.411 88.6305L77.5252 88.8304C77.2968 88.9446 76.9827 89.1159 76.5688 89.3585C76.269 89.5298 76.0121 89.7011 75.7979 89.8439L69.0175 86.4608L71.5584 90.7717C71.7154 91.0287 71.8439 91.2142 71.9724 91.3142C72.0866 91.4141 72.2293 91.4569 72.4006 91.4426C72.5719 91.4283 72.786 91.3427 73.0572 91.2L73.1714 91.3998C72.9145 91.514 72.5719 91.7138 72.1294 91.9708C71.7297 92.2134 71.4299 92.399 71.2158 92.556L71.1016 92.3562C71.3157 92.1992 71.4728 92.0564 71.5584 91.9422Z" fill="#292F36"/>
<path d="M63.7074 93.8124C63.8074 94.2549 63.9358 94.7403 64.1071 95.2541C63.4648 95.3683 62.3942 95.5967 60.8811 95.9108C59.368 96.2391 58.3117 96.4817 57.6836 96.6388C57.6122 96.082 57.5408 95.5967 57.4409 95.1542C57.3553 94.7688 57.2839 94.4548 57.1982 94.2264L57.4552 94.1693C57.6408 94.7545 57.812 95.1685 57.9691 95.4397C58.1261 95.7109 58.3259 95.8822 58.5829 95.9679C58.8398 96.0535 59.211 96.0392 59.682 95.9393L60.2958 95.8108L58.8969 89.3159C58.8255 89.0019 58.7542 88.7735 58.6542 88.645C58.5543 88.5165 58.4401 88.4309 58.2688 88.4166C58.0975 88.3881 57.8406 88.4166 57.498 88.4737L57.4552 88.2453C57.8549 88.1882 58.4259 88.074 59.1396 87.917C59.8961 87.7457 60.4671 87.6173 60.824 87.5173L60.8668 87.7457C60.5242 87.8314 60.2958 87.917 60.1531 88.0027C60.0103 88.0883 59.9247 88.2168 59.8961 88.3738C59.8676 88.5308 59.8819 88.7735 59.9532 89.0875L61.3521 95.5824L61.9659 95.454C62.437 95.3541 62.7796 95.2113 62.9794 95.0257C63.1793 94.8402 63.2935 94.5975 63.322 94.2977C63.3506 93.998 63.3363 93.5412 63.2649 92.9417L63.5219 92.8846C63.5647 93.1129 63.6218 93.427 63.7074 93.8124Z" fill="#292F36"/>
<path d="M44.765 89.8011C44.8079 89.3586 44.8221 88.859 44.8221 88.3022C45.3503 88.3736 46.2353 88.4593 47.4915 88.5735C48.976 88.7019 50.1037 88.8019 50.8745 88.8447L50.8603 89.0731C50.5748 89.0588 50.3749 89.0731 50.2465 89.1159C50.118 89.1587 50.0181 89.2301 49.961 89.3586C49.9039 89.487 49.861 89.7012 49.8325 89.9866L49.3186 95.7678C49.2901 96.0533 49.3043 96.2674 49.3329 96.4102C49.3614 96.5529 49.4471 96.6528 49.5756 96.7099C49.704 96.767 49.9039 96.8241 50.1751 96.8527L50.1608 97.0811C49.4043 96.9954 48.2766 96.8812 46.792 96.7528C45.6501 96.6528 44.8364 96.5958 44.3511 96.5672C44.451 96.0676 44.5224 95.6108 44.5509 95.1968C44.5795 94.8971 44.5937 94.6544 44.5795 94.4688L44.8507 94.4974C44.865 95.0113 44.8935 95.3824 44.9649 95.6394C45.022 95.8963 45.1504 96.0819 45.3503 96.2103C45.5359 96.3388 45.8499 96.4245 46.2496 96.453L47.2203 96.5386C47.5057 96.5672 47.7056 96.5529 47.8341 96.5244C47.9625 96.4958 48.0625 96.4102 48.1196 96.2817C48.1766 96.1532 48.2195 95.9391 48.248 95.6536L48.4907 92.9129L47.7199 92.8415C47.3345 92.813 47.0632 92.8986 46.9062 93.127C46.7635 93.3554 46.6493 93.5838 46.6065 93.8265C46.5494 94.0692 46.5208 94.2262 46.5065 94.2975L46.2353 94.269C46.2924 93.8836 46.3352 93.5267 46.3781 93.1699L46.4209 92.6132C46.4494 92.2135 46.478 91.671 46.5065 90.9573L46.7777 90.9859C46.7777 91.043 46.792 91.2285 46.792 91.5568C46.8063 91.8852 46.8777 92.1421 47.049 92.3134C47.206 92.499 47.4486 92.5989 47.7627 92.6274L48.5335 92.6988L48.7762 89.901C48.8047 89.6155 48.7905 89.4014 48.7619 89.2586C48.7334 89.1302 48.6477 89.0302 48.5192 88.9732C48.3908 88.9161 48.1909 88.8732 47.9197 88.8447L47.0632 88.7733C46.5779 88.7305 46.2068 88.759 45.9355 88.8732C45.6786 88.9731 45.4788 89.173 45.336 89.4442C45.1933 89.7154 45.0791 90.1294 44.9649 90.6718L44.6937 90.6433C44.6937 90.4292 44.7222 90.1437 44.765 89.8011Z" fill="#292F36"/>
<path d="M33.531 84.5053C33.7451 84.4625 33.9878 84.5053 34.2447 84.6195C34.5445 84.748 34.7443 84.9335 34.8585 85.1762C34.9727 85.4331 34.987 85.79 34.9156 86.2611L34.7015 87.4316C34.6301 87.8455 34.5873 88.1596 34.573 88.4023C34.5588 88.6306 34.6159 88.8448 34.7158 89.0303C34.8157 89.2159 35.0013 89.3586 35.2725 89.4728L36.3003 89.9011L37.3423 87.4173C37.4565 87.1461 37.5136 86.9462 37.5279 86.8035C37.5422 86.6608 37.4851 86.5466 37.3851 86.4466C37.2852 86.3467 37.1139 86.2468 36.857 86.1326L36.9426 85.9185C37.2709 86.0755 37.7134 86.2753 38.2987 86.518C38.9125 86.775 39.3836 86.9605 39.6976 87.0604L39.612 87.2746C39.3407 87.1746 39.1409 87.1318 39.0124 87.1175C38.8697 87.1175 38.7555 87.1604 38.6698 87.2746C38.5699 87.3745 38.47 87.5601 38.3558 87.8313L36.1147 93.1842C36.0005 93.4554 35.9434 93.6553 35.9291 93.798C35.9149 93.9408 35.972 94.055 36.0719 94.1549C36.1718 94.2548 36.3431 94.3547 36.6 94.4832L36.5144 94.6973C36.2146 94.5546 35.7864 94.3547 35.2154 94.1121C34.9299 93.9979 34.6301 93.8694 34.2876 93.7267C33.945 93.5839 33.7166 93.4983 33.5881 93.4412C33.0314 93.1985 32.5889 92.9273 32.2606 92.599C31.9323 92.2707 31.7467 91.9281 31.661 91.5569C31.5754 91.1858 31.6182 90.8289 31.7752 90.4721C31.8894 90.1866 32.075 89.9296 32.3319 89.7012C32.5889 89.4728 32.9172 89.3015 33.3169 89.2159C33.7166 89.1303 34.2019 89.1445 34.7301 89.273L34.6016 89.2016C34.3018 89.0161 34.0734 88.8305 33.9307 88.6306C33.7879 88.4451 33.688 88.231 33.6595 88.0026C33.6167 87.7742 33.6309 87.4887 33.688 87.1461L33.8879 85.9328C33.9307 85.6901 33.9592 85.5045 33.9592 85.3618C33.9592 85.219 33.945 85.1048 33.9021 85.0192C33.8593 84.9335 33.7879 84.8622 33.688 84.8336C33.5738 84.7765 33.4596 84.7765 33.3597 84.8051C33.2598 84.8336 33.117 84.905 32.9315 85.0049L32.8173 84.8193C33.0742 84.6623 33.3169 84.5481 33.531 84.5053ZM34.2447 89.587C33.9021 89.6299 33.6309 89.7583 33.4168 89.9724C33.2027 90.1866 33.0171 90.4721 32.8601 90.8432C32.6174 91.4285 32.5603 91.9423 32.7174 92.3563C32.8744 92.7703 33.2598 93.1128 33.9021 93.3841C34.1305 93.484 34.3018 93.5268 34.4446 93.5125C34.573 93.5125 34.6872 93.4554 34.7872 93.3412C34.8871 93.227 34.987 93.0415 35.0869 92.7845L36.2003 90.1295L35.4723 89.8297C35.0013 89.6299 34.5873 89.5442 34.2447 89.587Z" fill="#292F36"/>
<path d="M22.3971 86.4467C22.5256 86.4896 22.654 86.461 22.7682 86.3896C22.8824 86.3183 23.0394 86.1613 23.225 85.9329L26.8079 81.365C26.9935 81.1366 27.1077 80.951 27.1505 80.8226C27.1933 80.6941 27.1791 80.5656 27.1077 80.4514C27.0363 80.3372 26.8936 80.1802 26.6795 79.9947L26.8222 79.8091C27.0934 80.0517 27.4646 80.3658 27.9642 80.7512C28.4923 81.1652 28.892 81.4649 29.1632 81.6505L29.0205 81.8361C28.7921 81.6648 28.6065 81.5648 28.478 81.5363C28.3496 81.4935 28.2211 81.5078 28.1069 81.5934C27.9927 81.6648 27.8357 81.8218 27.6501 82.0502L24.0672 86.618C23.8816 86.8464 23.7674 87.032 23.7246 87.1605C23.6818 87.2889 23.6961 87.4174 23.7674 87.5316C23.8388 87.6458 23.9816 87.8028 24.1957 87.9884L24.0529 88.174C23.8103 87.9598 23.4249 87.6458 22.8967 87.2176C22.3971 86.8322 21.9974 86.5324 21.7119 86.3325L21.8547 86.147C22.0973 86.304 22.2686 86.4039 22.3971 86.4467Z" fill="#292F36"/>
<path d="M13.1754 76.2832C13.1183 75.6409 13.261 74.9985 13.5893 74.3847C13.9319 73.7566 14.4458 73.1999 15.1595 72.6717C15.859 72.1721 16.5584 71.8438 17.2864 71.7154C18.0144 71.5869 18.6853 71.6297 19.3134 71.8724C19.9415 72.115 20.4697 72.529 20.8836 73.1143C21.3261 73.7138 21.5688 74.3419 21.6259 74.9842C21.683 75.6266 21.5402 76.2689 21.2119 76.8827C20.8693 77.5108 20.3555 78.0675 19.6417 78.5957C18.9423 79.0953 18.2428 79.4236 17.5148 79.5521C16.8011 79.6805 16.1159 79.6377 15.4878 79.3951C14.8598 79.1524 14.3316 78.7384 13.9176 78.1674C13.4751 77.5536 13.2325 76.9256 13.1754 76.2832ZM15.3165 78.8241C15.8162 78.924 16.3871 78.8812 17.0152 78.6813C17.6433 78.4815 18.2714 78.1532 18.928 77.6678C19.5846 77.1968 20.0985 76.6829 20.4554 76.1405C20.8265 75.598 21.0264 75.0556 21.0549 74.5417C21.0977 74.0278 20.9693 73.571 20.698 73.1856C20.3983 72.7859 20.0129 72.529 19.499 72.4291C18.9994 72.3292 18.4284 72.372 17.8003 72.5718C17.1722 72.7717 16.5442 73.1 15.8875 73.571C15.2309 74.0421 14.717 74.556 14.3602 75.1127C13.989 75.6551 13.7892 76.1833 13.7463 76.7114C13.7035 77.2253 13.832 77.6821 14.1032 78.0675C14.403 78.4672 14.8027 78.7242 15.3165 78.8241Z" fill="#292F36"/>
<path d="M14.2745 59.0967C14.4458 59.2252 14.5742 59.4393 14.6599 59.7248C14.7598 60.0246 14.7455 60.3101 14.6313 60.5527C14.5171 60.8097 14.2459 61.0523 13.832 61.295L12.7899 61.8803C12.4331 62.0944 12.1618 62.2657 11.9763 62.4084C11.7907 62.5512 11.6622 62.7225 11.5909 62.9223C11.5195 63.1222 11.5195 63.3506 11.6051 63.636L11.9334 64.7066L14.5029 63.9073C14.7884 63.8216 14.9739 63.736 15.0881 63.6503C15.2023 63.5647 15.2594 63.4505 15.2737 63.322C15.288 63.1935 15.2451 62.9794 15.1738 62.7082L15.4022 62.6368C15.4878 62.9794 15.6163 63.4647 15.8161 64.0643C16.016 64.7066 16.173 65.1777 16.2872 65.4775L16.0588 65.5488C15.9589 65.2776 15.8732 65.092 15.7876 64.9921C15.7019 64.8922 15.5877 64.8208 15.445 64.8208C15.3022 64.8208 15.0881 64.8494 14.8169 64.9493L9.27839 66.6622C8.9929 66.7479 8.80733 66.8335 8.69313 66.9192C8.57894 67.0048 8.52184 67.119 8.50756 67.2475C8.49329 67.3902 8.53611 67.5901 8.60748 67.8613L8.37909 67.9327C8.30772 67.6186 8.17925 67.1619 7.99368 66.5623C7.90803 66.2768 7.79384 65.9485 7.67964 65.6059C7.56544 65.2633 7.4798 65.0207 7.43697 64.8922C7.2514 64.3069 7.19431 63.7931 7.23713 63.3363C7.27995 62.8795 7.4227 62.5084 7.65109 62.2086C7.87948 61.9088 8.17925 61.709 8.55039 61.5948C8.83588 61.5091 9.14992 61.4806 9.49251 61.5234C9.83509 61.5662 10.1634 61.709 10.506 61.9659C10.8486 62.2229 11.1341 62.594 11.3767 63.0936L11.3625 62.9509C11.3196 62.594 11.3054 62.3085 11.3625 62.0658C11.4196 61.8232 11.5195 61.6233 11.6622 61.452C11.8193 61.2807 12.0476 61.0952 12.3474 60.9239L13.4037 60.2958C13.6178 60.1816 13.7891 60.0674 13.8891 59.9818C13.989 59.8961 14.0746 59.8105 14.1175 59.7248C14.1603 59.6392 14.1603 59.5392 14.1317 59.4393C14.0889 59.3109 14.0318 59.2252 13.9462 59.1681C13.8605 59.111 13.7178 59.0396 13.5179 58.9683L13.5893 58.7542C13.8748 58.8541 14.1175 58.9683 14.2745 59.0967ZM10.8629 62.9223C10.6202 62.6939 10.3347 62.5655 10.0349 62.5369C9.73517 62.5084 9.39258 62.5512 9.00717 62.6796C8.39337 62.8652 7.9794 63.165 7.75101 63.5504C7.52262 63.9358 7.52262 64.464 7.72246 65.1063C7.79384 65.3347 7.87948 65.506 7.96513 65.6059C8.05078 65.7058 8.17925 65.7629 8.32199 65.7629C8.46474 65.7629 8.67886 65.7201 8.9358 65.6488L11.6765 64.7923L11.4481 64.0357C11.3054 63.5218 11.1055 63.1507 10.8629 62.9223Z" fill="#292F36"/>
<path d="M13.1755 45.5502C13.718 45.3075 14.0463 44.8507 14.189 44.1655C14.2319 43.9086 14.2319 43.6516 14.1605 43.409C14.0891 43.1663 13.9606 42.9522 13.7608 42.7666C13.561 42.5811 13.2897 42.4526 12.9329 42.3955C12.6331 42.3384 12.3619 42.3669 12.105 42.4669C11.848 42.5668 11.5911 42.7238 11.3484 42.9379C11.1057 43.152 10.8202 43.4375 10.5062 43.7944C10.1493 44.1941 9.8353 44.5224 9.56409 44.7508C9.29287 44.9935 8.99311 45.1647 8.66479 45.2932C8.33648 45.4217 7.96534 45.436 7.55138 45.3646C7.12314 45.2789 6.76628 45.1219 6.50934 44.865C6.2524 44.608 6.06683 44.3083 5.98118 43.9514C5.89553 43.5945 5.89553 43.2234 5.96691 42.8237C6.00973 42.5811 6.06683 42.3955 6.1382 42.2242C6.20957 42.0529 6.28095 41.9244 6.36659 41.8245C6.45224 41.7246 6.53789 41.6104 6.65208 41.4962C6.79483 41.3392 6.8662 41.225 6.89475 41.1393C6.90903 41.068 6.88048 41.0109 6.8091 40.9538C6.73773 40.8967 6.60926 40.8538 6.43797 40.7967L6.48079 40.5398C6.9233 40.654 7.69412 40.8253 8.82181 41.0394L8.77899 41.2963C8.3793 41.2535 8.00816 41.2678 7.63703 41.3534C7.28016 41.4248 6.96612 41.5818 6.70918 41.8245C6.45224 42.0529 6.28095 42.3812 6.20957 42.7809C6.15248 43.0521 6.16675 43.2948 6.23812 43.5374C6.30949 43.7801 6.43797 43.9657 6.60926 44.1227C6.79483 44.2797 7.00895 44.3796 7.26589 44.4367C7.67985 44.5081 8.03671 44.451 8.33648 44.2512C8.63624 44.0513 8.92174 43.7944 9.19295 43.4946C9.46417 43.1949 9.63546 42.995 9.73538 42.8951C10.1351 42.4669 10.4634 42.1385 10.7346 41.8959C11.0058 41.6532 11.3056 41.4819 11.6339 41.3677C11.9622 41.2535 12.3191 41.2392 12.7045 41.3106C13.1755 41.3963 13.561 41.5818 13.8464 41.8531C14.1319 42.1385 14.3175 42.4669 14.4174 42.8665C14.5174 43.2662 14.5174 43.6945 14.4317 44.1513C14.3603 44.5224 14.2747 44.8079 14.1462 45.0363C14.032 45.2647 13.875 45.4645 13.7037 45.6501C13.561 45.8071 13.4896 45.9213 13.461 46.0069C13.4468 46.0783 13.4753 46.1354 13.5467 46.1925C13.6181 46.2496 13.7465 46.3067 13.9178 46.3495L13.875 46.6065C13.461 46.4923 12.5475 46.3067 11.1343 46.0498L11.1771 45.7928C11.9765 45.8642 12.6331 45.7928 13.1755 45.5502Z" fill="#292F36"/>
<path d="M10.3494 33.5165C9.94967 33.3024 9.49289 33.1026 8.979 32.9027C9.29304 32.346 9.8212 31.3754 10.5349 29.9907C11.2487 28.6204 11.7483 27.6497 12.0195 27.0645C12.4905 27.3642 12.9188 27.6212 13.3042 27.821C13.6468 28.0066 13.9465 28.135 14.1749 28.235L14.0465 28.4776C13.4755 28.2492 13.0472 28.1065 12.7475 28.0637C12.4477 28.0066 12.1765 28.0637 11.9481 28.2064C11.7197 28.3492 11.4913 28.6347 11.2772 29.0629L10.9917 29.6339L16.8871 32.7029C17.1726 32.8599 17.401 32.9313 17.558 32.9456C17.715 32.9598 17.8578 32.917 17.9862 32.8028C18.1147 32.6886 18.2575 32.4745 18.4287 32.1747L18.6429 32.2889C18.4287 32.6458 18.1575 33.1454 17.8149 33.802C17.4581 34.4872 17.2011 35.0154 17.0441 35.3437L16.83 35.2295C16.9727 34.9154 17.0727 34.6728 17.0869 34.5158C17.1155 34.3445 17.0727 34.2017 16.9585 34.0733C16.8443 33.9448 16.6587 33.8163 16.3732 33.6593L10.4778 30.576L10.1781 31.1327C9.94967 31.5609 9.84975 31.9035 9.86402 32.1747C9.8783 32.446 9.9925 32.6886 10.2066 32.9027C10.4207 33.1169 10.7776 33.4023 11.2915 33.7307L11.163 33.9733C10.9774 33.8591 10.6919 33.7021 10.3494 33.5165Z" fill="#292F36"/>
<path d="M20.4268 17.1153C20.6694 16.8726 20.8693 16.6442 21.012 16.4729L21.1833 16.6442C21.0977 16.7727 21.0549 16.9582 21.0691 17.1724C21.0834 17.3865 21.1405 17.6862 21.2547 18.0431L22.5537 21.9115L24.0668 23.4103C24.2809 23.6102 24.4379 23.7529 24.5664 23.81C24.6949 23.8671 24.8233 23.8671 24.9518 23.81C25.0803 23.7529 25.2373 23.6244 25.4514 23.4389L25.6227 23.6102C25.3515 23.8528 24.9946 24.1954 24.5521 24.6379C24.0811 25.109 23.7385 25.4801 23.5244 25.7228L23.3531 25.5515C23.5386 25.3374 23.6671 25.1804 23.7242 25.0519C23.7813 24.9234 23.7813 24.795 23.7099 24.6665C23.6528 24.538 23.5101 24.3667 23.3102 24.1669L22.0541 22.925L17.2864 21.5261C17.0009 21.4404 16.7868 21.4119 16.644 21.4262C16.5013 21.4404 16.4014 21.4833 16.33 21.5546L16.1587 21.3833C16.3871 21.1835 16.644 20.9551 16.901 20.6839C17.4291 20.1415 17.8145 19.756 18.0287 19.4991L18.2 19.6704C17.8145 20.0558 17.7289 20.3556 17.943 20.5697C18.0287 20.6553 18.1429 20.7124 18.3141 20.7695L22.3253 22.0114L21.269 18.8567C21.112 18.4 20.9549 18.0859 20.7836 17.9289C20.6266 17.7719 20.4553 17.7291 20.2698 17.7862C20.0842 17.8433 19.8701 17.986 19.6131 18.2287L19.4418 18.0574C19.7844 17.7433 20.0985 17.4293 20.4268 17.1153Z" fill="#292F36"/>
<path d="M29.0633 11.3627C28.9776 11.4627 28.9348 11.5911 28.9633 11.7339C28.9919 11.8766 29.0633 12.0765 29.206 12.3334L31.961 17.4437C32.1037 17.7006 32.2179 17.8719 32.3321 17.9718C32.432 18.0718 32.5605 18.1003 32.689 18.086C32.8175 18.0718 33.0173 17.9861 33.26 17.8576L34.0165 17.4437C34.4448 17.2153 34.7445 16.9726 34.9015 16.73C35.0586 16.4873 35.1157 16.2161 35.0728 15.8878C35.03 15.5594 34.9015 15.1455 34.6731 14.603L34.9158 14.4746C35.0157 14.703 35.1585 14.9885 35.3441 15.331C35.5582 15.7165 35.8151 16.1447 36.1291 16.6158C35.6581 16.8442 34.8587 17.2581 33.7596 17.8576C32.4463 18.5714 31.4471 19.1138 30.7905 19.4992L30.6763 19.2994C30.9189 19.1566 31.0902 19.0282 31.1759 18.9282C31.2615 18.8283 31.3044 18.6998 31.2758 18.5571C31.2473 18.4143 31.1759 18.2145 31.0331 17.9576L28.2496 12.8473C28.1069 12.5903 27.9927 12.419 27.8785 12.3191C27.7785 12.2192 27.6501 12.1907 27.5216 12.2049C27.3789 12.2192 27.1933 12.2906 26.9363 12.419L26.8364 12.2049C27.1362 12.0765 27.5787 11.8481 28.164 11.5197C28.7207 11.22 29.1489 10.9773 29.4487 10.7917L29.5629 10.9916C29.3202 11.1343 29.1632 11.2628 29.0633 11.3627Z" fill="#292F36"/>
<path d="M46.4496 12.2761C46.5353 12.7043 46.6637 13.1897 46.8208 13.7321C46.2926 13.8178 45.4219 13.9748 44.1942 14.2174C42.724 14.5029 41.6248 14.7313 40.8683 14.9026L40.8255 14.6742C41.0967 14.6029 41.2965 14.5458 41.4107 14.4601C41.5249 14.3887 41.5963 14.2745 41.6106 14.1461C41.6248 14.0033 41.6106 13.7892 41.5535 13.5037L40.44 7.80817C40.3829 7.52268 40.3258 7.32284 40.2402 7.19437C40.1546 7.0659 40.0689 6.99452 39.9262 6.98025C39.7977 6.9517 39.5836 6.96597 39.3124 7.0088L39.2695 6.78041C40.0261 6.65194 41.1395 6.45209 42.5955 6.1666C43.7232 5.93821 44.5226 5.78119 44.9793 5.66699C45.0222 6.18088 45.0935 6.63766 45.1649 7.03735C45.222 7.33711 45.2791 7.56551 45.3362 7.7368L45.0793 7.7939C44.9222 7.30856 44.7795 6.9517 44.651 6.72331C44.5226 6.49492 44.337 6.35217 44.1229 6.2808C43.8945 6.20942 43.5947 6.20942 43.1808 6.29507L42.2244 6.48064C41.9531 6.53774 41.7533 6.59484 41.6391 6.66621C41.5249 6.73758 41.4535 6.8375 41.425 6.98025C41.4107 7.12299 41.425 7.33711 41.4821 7.6226L42.0102 10.3348L42.7668 10.1777C43.1522 10.1064 43.3806 9.93508 43.4662 9.67814C43.5519 9.4212 43.5804 9.17853 43.5662 8.93586C43.5519 8.69319 43.5376 8.53617 43.5376 8.4648L43.7946 8.4077C43.8374 8.79312 43.8945 9.14998 43.9659 9.49257L44.08 10.035C44.1514 10.4204 44.2799 10.9628 44.4655 11.648L44.2085 11.7051C44.1942 11.648 44.1371 11.4767 44.0372 11.1627C43.9373 10.8486 43.7946 10.6345 43.5804 10.5061C43.3663 10.3776 43.1237 10.349 42.8096 10.4061L42.0531 10.5489L42.5955 13.3039C42.6526 13.5894 42.7097 13.7892 42.7811 13.9177C42.8524 14.0319 42.9524 14.1032 43.0951 14.1318C43.2236 14.1461 43.4377 14.1318 43.7089 14.0747L44.5511 13.9034C45.0222 13.8035 45.379 13.675 45.6074 13.5037C45.8358 13.3324 45.9643 13.0898 46.0214 12.79C46.0785 12.4902 46.0785 12.062 46.0357 11.5053L46.2926 11.4482C46.3354 11.6623 46.3783 11.9335 46.4496 12.2761Z" fill="#292F36"/>
<path d="M36.8281 66.7905C36.1715 65.9054 35.6005 64.9348 35.1009 63.8642C34.6013 62.7936 34.2016 61.7087 33.9018 60.5953C33.2452 55.6991 33.2309 50.9457 33.8447 46.335C34.4585 41.7244 35.4577 37.1851 36.8281 32.7029C37.0565 32.2033 37.5561 31.9606 38.3269 31.9606C39.0978 31.9606 39.8543 32.1319 40.6251 32.4745C41.396 32.8171 42.024 33.2738 42.5236 33.8448C43.0233 34.4158 43.1374 35.0153 42.8662 35.6291C42.438 36.5427 42.024 37.7846 41.6101 39.3262C41.1961 40.8822 40.7821 42.5951 40.411 44.4651C40.0256 46.335 39.6973 48.3049 39.4118 50.3462C39.1263 52.3874 38.9122 54.3573 38.7837 56.2273C38.6552 58.0973 38.6267 59.7959 38.6981 61.309C38.7694 62.8221 38.9978 64.0212 39.3832 64.8919C41.1818 62.4795 42.8234 59.9815 44.3222 57.3978C45.8211 54.8141 47.22 52.2019 48.5332 49.5325C49.8465 46.8775 51.1026 44.1939 52.2874 41.4674C53.4722 38.7553 54.6427 36.0717 55.7847 33.4309C56.3557 32.0891 56.9266 30.6759 57.4834 29.1913C58.0401 27.6925 58.7681 26.4221 59.6959 25.3515C60.0813 25.0089 60.3811 24.8947 60.5809 25.0089C60.795 25.1231 60.9378 25.3372 61.0092 25.6655C61.0805 25.9938 61.1234 26.3364 61.1234 26.6933C61.1234 27.0501 61.1234 27.3356 61.1234 27.5212C60.8521 29.277 60.6238 31.0185 60.4382 32.7457C60.2526 34.4729 59.8387 36.1288 59.2391 37.7418C58.2399 40.2684 57.2264 42.7664 56.1701 45.2645C55.1138 47.7482 53.9861 50.2034 52.787 52.6158C51.588 55.0282 50.2747 57.3693 48.8901 59.6389C47.4912 61.9228 45.9781 64.0926 44.3222 66.1481C43.0233 67.7897 41.7243 68.6604 40.4538 68.7603C39.1263 68.8745 37.9415 68.2036 36.8281 66.7905Z" fill="#292F36" stroke="white" stroke-miterlimit="10"/>
<path d="M60.4668 60.3098C59.696 59.2392 58.9394 58.1543 58.1971 57.0409C57.4549 55.9275 57.0837 54.7142 57.0837 53.3724C57.0837 51.8878 57.512 50.4746 58.3684 49.1471C59.2249 47.8338 60.2099 46.7632 61.3233 45.9639C61.7801 45.6641 62.2511 45.4072 62.7222 45.2216C63.1932 45.036 63.7071 45.0503 64.2495 45.2787C64.4779 45.3929 64.7206 45.4785 64.9633 45.5356C65.2059 45.5927 65.4343 45.6641 65.6199 45.7355C65.8055 45.8068 66.0196 45.921 66.248 46.0781C66.4764 46.2351 66.5906 46.4349 66.5906 46.7061C66.5906 47.7767 66.6191 48.6475 66.6762 49.3184C66.7333 49.9893 66.819 50.5603 66.9332 51.0456C67.0474 51.5309 67.1616 51.9449 67.2758 52.3018C67.39 52.6729 67.5041 53.0583 67.6183 53.4723C67.6897 53.8577 67.6754 54.186 67.5612 54.4429C67.447 54.7142 67.1616 54.7427 66.7048 54.5571C65.8626 54.2574 65.2345 53.6436 64.8348 52.7157C64.4351 51.7879 64.1354 50.96 63.9498 50.1891C63.907 50.0321 63.8213 49.7752 63.6643 49.3898C63.5073 49.0043 63.4216 48.7331 63.3788 48.5904C63.079 48.519 62.7079 48.6189 62.2939 48.9044C61.88 49.1899 61.4946 49.5896 61.1805 50.0749C60.8522 50.5745 60.6381 51.1455 60.5524 51.8022C60.4525 52.4588 60.581 53.1011 60.9236 53.7578C61.0806 53.9862 61.2947 54.2716 61.5802 54.5857C61.8657 54.914 62.1512 55.2423 62.4367 55.5849C62.7222 55.9275 63.0077 56.2701 63.2932 56.5841C63.5786 56.8982 63.8213 57.1694 64.0069 57.3549C64.2353 57.5833 64.3923 57.7118 64.4637 57.7261C64.535 57.7404 64.7349 57.6975 65.0347 57.5833C65.4201 57.3978 66.0053 57.1408 66.7904 56.8411C67.5755 56.5413 68.4034 56.2273 69.2599 55.9275C70.1164 55.6277 70.9443 55.3708 71.7294 55.1567C72.5145 54.9425 73.114 54.8426 73.5423 54.8426C73.8135 54.8426 73.9991 54.9425 74.1133 55.1281C74.2274 55.2423 74.2132 55.3993 74.0562 55.5849C73.8991 55.7705 73.6993 55.9703 73.4566 56.1559C73.214 56.3415 72.9427 56.5128 72.6858 56.6698C72.4146 56.8268 72.2433 56.9124 72.1719 56.9553C71.5153 57.3407 70.7016 57.7689 69.7024 58.2542C68.7032 58.7253 67.8467 59.1964 67.1187 59.6531C67.0474 59.7245 66.9046 59.8102 66.6905 59.8815C66.4764 59.9529 66.3194 60.0386 66.2052 60.1099C66.6619 61.1377 66.9903 62.037 67.1758 62.7793C67.3614 63.5215 67.4328 64.2353 67.3757 64.9347C67.3186 65.6199 67.1758 66.3194 66.9474 67.0331C66.719 67.7468 66.405 68.5605 66.0339 69.474C65.4914 70.359 64.949 71.2012 64.3923 72.0006C63.8356 72.8 63.2218 73.528 62.5223 74.1846C61.8372 74.8413 61.0806 75.3551 60.2812 75.7263C59.4819 76.1117 58.5968 76.2973 57.6404 76.2973C57.098 76.2973 56.5841 76.2259 56.0845 76.0974C55.5849 75.9689 55.1709 75.6834 54.8284 75.2695C53.9433 74.3131 53.458 73.2711 53.3438 72.1434C53.2296 71.0157 53.3295 69.9023 53.6293 68.7888C53.8577 68.1037 54.1432 67.4756 54.4858 66.8903C55.328 65.4343 56.2558 64.2067 57.2693 63.1932C58.2971 62.194 59.3534 61.2233 60.4668 60.3098ZM62.4224 62.8935C61.9942 63.3217 61.4232 63.9212 60.6952 64.7063C59.9672 65.4914 59.2963 66.3479 58.6539 67.2615C58.0259 68.175 57.512 69.0886 57.1123 69.9879C56.7126 70.8872 56.6127 71.658 56.7982 72.3147C57.5691 71.9721 58.3542 71.4011 59.1535 70.616C59.9529 69.8309 60.6666 68.9744 61.2804 68.0323C61.8943 67.0902 62.3225 66.1623 62.5652 65.2488C62.8078 64.3209 62.765 63.5358 62.4224 62.8935Z" fill="#292F36" stroke="white" stroke-miterlimit="10"/>
<path d="M51.1599 83.5488C33.3025 83.5488 18.771 69.0174 18.771 51.1599C18.771 33.3025 33.3025 18.771 51.1599 18.771C69.0174 18.771 83.5488 33.3025 83.5488 51.1599C83.5488 69.0174 69.0174 83.5488 51.1599 83.5488ZM51.1599 20.1984C34.0876 20.1984 20.1984 34.0876 20.1984 51.1599C20.1984 68.2323 34.0876 82.1214 51.1599 82.1214C68.2323 82.1214 82.1214 68.2323 82.1214 51.1599C82.1214 34.0876 68.2323 20.1984 51.1599 20.1984Z" fill="#292F36"/>
</svg>
