<?xml version="1.0" standalone="no"?>
<!DOCTYPE svg PUBLIC "-//W3C//DTD SVG 20010904//EN"
 "http://www.w3.org/TR/2001/REC-SVG-20010904/DTD/svg10.dtd">
<svg version="1.0" xmlns="http://www.w3.org/2000/svg"
 width="448.000000pt" height="381.000000pt" viewBox="0 0 448.000000 381.000000"
 preserveAspectRatio="xMidYMid meet">
<metadata>
Created by potrace 1.16, written by Peter Selinger 2001-2019
</metadata>
<g transform="translate(0.000000,381.000000) scale(0.100000,-0.100000)"
fill="#000000" stroke="none">
<path d="M1075 3623 c-74 -19 -135 -102 -135 -183 0 -34 3 -38 30 -42 38 -6
46 0 64 42 15 34 15 34 16 8 0 -18 7 -29 20 -33 28 -9 93 -80 107 -118 6 -18
12 -56 12 -86 1 -49 -1 -53 -19 -48 -24 6 -27 -8 -3 -17 22 -9 33 11 33 62 0
98 -27 152 -108 211 -18 13 -30 26 -27 29 2 3 12 -1 21 -9 19 -16 101 -22 110
-8 8 14 45 -43 69 -106 13 -32 20 -75 20 -120 0 -58 -5 -81 -32 -135 -17 -36
-51 -85 -75 -110 -70 -74 -76 -86 -25 -50 68 48 135 123 159 176 14 33 20 67
20 119 -1 80 -11 112 -67 200 -32 51 -34 56 -12 36 22 -20 33 -23 77 -19 41 4
50 2 46 -9 -3 -8 -2 -11 3 -8 6 3 14 -3 20 -12 8 -14 10 -15 11 -3 0 9 -7 26
-16 38 -8 12 -14 28 -12 34 2 6 15 -13 28 -43 12 -30 25 -48 28 -41 7 22 -55
136 -95 173 -58 53 -122 79 -190 78 -32 -1 -67 -4 -78 -6z"/>
<path d="M3250 3621 c-137 -42 -232 -203 -228 -386 l1 -80 7 95 c5 71 13 109
33 153 25 56 45 78 32 36 -5 -15 -4 -19 4 -15 6 4 11 4 11 -1 0 -15 104 -1
118 16 8 9 4 -2 -9 -24 -62 -109 -68 -128 -68 -210 -1 -58 5 -92 19 -122 23
-51 91 -126 157 -173 51 -36 45 -24 -25 50 -24 25 -58 74 -75 110 -53 107 -41
231 31 343 14 20 29 37 34 37 5 0 2 -7 -6 -16 -9 -8 -16 -17 -16 -18 0 -1 23
0 50 4 37 5 50 3 50 -6 0 -8 -9 -18 -20 -24 -33 -18 -63 -89 -67 -160 -4 -70
4 -94 30 -84 24 9 21 23 -3 17 -18 -5 -20 -1 -19 48 0 30 6 68 12 86 14 38 79
109 107 118 12 4 20 15 20 28 1 19 3 18 17 -8 20 -38 27 -42 63 -37 27 4 30 8
30 42 0 78 -57 157 -128 178 -44 13 -123 14 -162 3z"/>
<path d="M2235 3110 l-649 -5 -4 -45 c-2 -25 -16 -67 -30 -94 -22 -40 -37 -54
-79 -73 -28 -13 -71 -28 -95 -32 -33 -7 -37 -9 -15 -10 95 -4 198 65 220 146
6 24 14 38 18 31 5 -7 14 -6 30 6 26 18 49 21 49 6 0 -5 -9 -10 -20 -10 -18 0
-20 -7 -20 -55 0 -106 -62 -170 -175 -182 -31 -3 -57 -9 -59 -12 -6 -9 12
-194 29 -305 49 -311 132 -548 262 -745 63 -95 211 -247 282 -289 l46 -27 -39
-3 c-26 -2 -35 -6 -27 -12 8 -4 27 -4 44 1 21 6 35 4 50 -6 18 -13 19 -15 4
-21 -10 -3 -29 -4 -42 -2 -14 3 -25 1 -25 -3 0 -5 10 -10 23 -10 15 -1 17 -3
5 -6 -21 -5 -100 46 -91 60 3 6 1 7 -6 3 -15 -10 -139 97 -207 179 -70 83
-109 143 -171 260 -29 55 -53 96 -53 91 0 -13 89 -188 106 -207 8 -8 14 -19
14 -24 0 -20 110 -152 193 -232 102 -97 228 -177 364 -233 l82 -33 48 18 c198
74 379 211 512 389 71 96 156 234 148 242 -3 3 -23 -28 -45 -68 -68 -125 -200
-285 -285 -349 -32 -23 -43 -26 -63 -18 -17 6 -32 5 -46 -2 -34 -18 -30 -3 6
22 67 45 214 205 271 292 163 251 264 599 277 957 l3 85 -32 -3 c-43 -4 -104
13 -137 39 -37 29 -53 65 -59 134 -3 33 -3 49 0 35 5 -23 6 -24 14 -5 7 19 8
19 8 -1 1 -12 8 -28 18 -35 15 -13 15 -12 5 7 -6 11 -7 26 -2 33 6 10 10 7 15
-10 18 -58 95 -129 139 -129 11 0 -2 11 -31 25 -44 22 -54 33 -77 84 -14 32
-29 80 -32 105 -4 26 -10 48 -13 49 -3 1 -298 0 -656 -3z m569 -200 c23 -113
74 -160 175 -160 l54 0 -7 -92 c-11 -153 -35 -317 -60 -418 -100 -401 -314
-692 -611 -831 -103 -48 -120 -48 -231 5 -379 180 -595 562 -659 1166 -19 179
-20 170 13 170 50 0 127 29 154 57 36 40 48 66 48 111 0 21 3 42 7 45 3 4 254
6 556 5 l550 -3 11 -55z"/>
<path d="M2225 2929 c7 -22 9 -728 3 -735 -2 -2 -156 -4 -341 -4 -185 -1 -337
-4 -337 -9 0 -4 13 -47 30 -95 32 -96 102 -241 152 -314 111 -165 279 -302
455 -371 l51 -20 1 391 c0 215 3 394 7 397 3 3 158 5 345 3 l339 -3 11 28 c34
88 84 459 71 526 -3 13 -15 17 -55 17 -91 0 -149 58 -163 164 l-7 46 -284 0
-284 0 6 -21z m313 -381 l3 -158 -31 0 -30 0 0 161 0 160 28 -3 27 -3 3 -157z
m-580 -685 l-3 -158 -25 0 -25 0 -3 158 -3 157 31 0 31 0 -3 -157z"/>
<path d="M1840 2545 l0 -165 35 0 35 0 0 70 0 70 50 0 c47 0 50 2 50 25 0 23
-3 25 -48 25 -27 0 -51 2 -53 5 -3 2 -3 20 -1 39 4 34 5 35 56 38 47 3 51 5
51 28 0 25 -2 25 -87 28 l-88 3 0 -166z"/>
<path d="M2355 2068 c-3 -8 -4 -92 -3 -188 l3 -175 27 -3 27 -3 3 108 3 108
38 3 c34 3 37 6 37 33 0 27 -3 29 -35 29 -24 0 -35 5 -35 15 0 11 11 15 36 15
34 0 35 1 32 33 l-3 32 -63 3 c-45 2 -64 -1 -67 -10z"/>
<path d="M998 1646 c-36 -12 -98 -43 -136 -68 -39 -26 -94 -54 -124 -63 -80
-23 -85 -28 -68 -61 34 -62 95 -78 203 -51 67 17 80 18 88 6 6 -11 17 -5 50
26 66 62 69 65 99 80 28 15 160 38 168 30 3 -2 -3 -12 -12 -21 -21 -20 -17
-48 8 -52 10 -2 44 8 77 23 32 14 81 29 109 32 29 3 50 11 50 18 0 24 -155
112 -182 103 -6 -2 17 -15 51 -28 34 -14 74 -36 88 -50 l28 -25 -55 -8 c-30
-5 -63 -9 -72 -10 -10 -1 -18 -5 -18 -9 0 -9 -54 -38 -70 -38 -17 0 -11 26 10
45 11 10 17 22 13 27 -10 18 -144 -1 -203 -29 -30 -15 -58 -25 -62 -25 -5 1
-7 -3 -5 -10 1 -6 -10 -13 -25 -14 -39 -4 -35 12 7 27 19 7 33 15 30 17 -8 8
-75 -23 -75 -35 0 -15 -57 -18 -80 -3 -12 7 -11 9 5 8 11 -1 49 11 85 26 36
15 75 30 88 33 12 3 22 9 22 13 0 5 24 16 54 24 60 18 166 21 166 6 0 -5 7
-10 16 -10 37 0 3 25 -51 37 -81 18 -145 5 -273 -58 -86 -41 -114 -50 -168
-53 -69 -4 -101 -16 -43 -17 19 0 54 -9 79 -20 41 -17 42 -19 10 -12 -19 5
-72 8 -118 8 -59 0 -82 4 -82 13 0 7 12 12 28 12 27 0 128 46 161 73 34 28
141 78 197 91 40 10 49 14 29 15 -16 0 -60 -10 -97 -23z"/>
<path d="M3414 1654 c59 -14 157 -61 211 -100 17 -12 46 -29 65 -37 35 -15 35
-15 -35 -11 -82 4 -157 30 -134 46 11 8 10 9 -4 4 -10 -3 -46 8 -81 24 -90 43
-158 54 -231 37 -54 -12 -88 -37 -51 -37 9 0 16 5 16 10 0 15 106 12 166 -6
30 -8 54 -19 54 -24 0 -4 10 -10 23 -13 12 -3 51 -18 87 -33 36 -15 74 -27 85
-26 16 1 17 -1 5 -8 -23 -15 -80 -12 -80 3 0 12 -67 43 -75 35 -3 -2 11 -10
30 -17 42 -15 46 -31 8 -27 -16 1 -27 8 -25 14 1 7 -1 11 -5 10 -5 0 -33 10
-63 25 -93 43 -259 48 -190 5 21 -13 28 -48 10 -48 -16 0 -70 29 -70 38 0 4
-8 8 -17 9 -10 1 -43 5 -73 10 l-55 8 28 25 c14 14 54 36 88 50 34 13 57 26
51 28 -27 9 -182 -79 -182 -103 0 -7 21 -15 50 -18 28 -3 77 -18 109 -32 33
-15 67 -25 77 -23 25 4 29 32 8 52 -9 9 -15 19 -12 21 8 8 140 -15 168 -30 30
-15 33 -18 99 -80 33 -31 44 -37 50 -26 8 12 19 11 75 -3 110 -27 173 -17 210
36 26 37 19 45 -51 69 -37 12 -100 44 -141 70 -72 48 -185 90 -233 88 -13 0 2
-7 35 -15z"/>
<path d="M1410 1470 c-41 -12 -84 -37 -106 -62 -24 -26 -108 -218 -99 -226 18
-19 149 -1 176 24 22 19 33 14 49 -26 16 -38 29 -34 55 15 24 44 27 46 124 75
62 19 80 21 111 11 46 -14 90 -14 110 -1 13 9 12 13 -8 28 -12 9 -51 39 -85
66 -87 69 -152 96 -234 100 -37 2 -79 0 -93 -4z"/>
<path d="M2921 1470 c-50 -11 -114 -46 -188 -104 -29 -23 -62 -49 -75 -58 -20
-15 -21 -19 -8 -28 20 -13 64 -13 110 1 31 10 49 8 111 -11 97 -29 100 -31
124 -75 26 -49 39 -53 55 -15 16 40 27 45 49 26 27 -25 158 -43 176 -24 9 8
-75 200 -99 226 -50 56 -158 82 -255 62z"/>
<path d="M3761 826 c-17 -35 -31 -67 -31 -70 0 -19 -85 -174 -103 -188 -23
-19 -23 -19 50 -20 27 -1 49 4 51 11 2 6 -4 11 -12 11 -22 0 -30 24 -16 49 8
17 20 21 59 21 41 0 51 -4 65 -25 21 -33 20 -42 -6 -52 -33 -12 146 -19 317
-13 l140 5 3 63 c3 65 -11 79 -23 23 -7 -32 -42 -61 -75 -61 -12 0 -18 -4 -15
-10 10 -16 -8 -11 -33 8 -22 17 -23 22 -20 147 3 126 4 130 26 133 12 2 22 8
22 13 0 5 -40 9 -90 9 -84 0 -117 -11 -70 -23 19 -5 20 -13 20 -134 0 -130 -3
-146 -30 -155 -27 -10 -51 13 -80 75 -15 34 -44 97 -64 140 -20 43 -36 82 -36
87 0 5 -4 11 -9 15 -6 3 -24 -23 -40 -59z m72 -46 c11 -25 37 -82 58 -127 22
-46 39 -85 39 -88 0 -3 -17 -5 -38 -5 -37 0 -39 2 -37 30 1 16 -2 27 -7 24 -5
-3 -12 3 -15 15 -3 12 -10 21 -15 21 -5 0 -7 4 -4 9 3 4 -3 27 -14 49 -11 23
-20 48 -20 56 0 10 -6 13 -15 10 -8 -4 -15 -10 -15 -16 0 -5 4 -7 9 -4 5 3 16
-12 25 -34 20 -50 20 -56 0 -64 -10 -4 -13 -2 -8 7 6 9 4 9 -8 -1 -13 -10 -20
-9 -39 8 -14 11 -18 19 -11 20 7 0 11 4 8 9 -8 13 4 42 15 35 5 -3 8 3 7 13
-1 10 9 42 22 71 23 50 25 52 34 30 5 -13 18 -43 29 -68z m265 18 c-5 -39 -7
-106 -6 -147 3 -71 5 -76 28 -82 16 -5 2 -7 -40 -7 -36 0 -60 1 -55 4 6 2 9
61 7 154 l-3 150 39 0 38 0 -8 -72z"/>
<path d="M15 870 c-3 -5 -2 -10 4 -10 5 0 17 -3 27 -7 12 -4 15 -3 10 5 -5 9
22 12 103 12 l111 0 0 -27 c0 -25 -1 -26 -14 -8 -10 14 -30 20 -77 23 l-64 4
5 -77 c3 -42 3 -78 0 -80 -3 -2 -3 -35 0 -74 l5 -71 -36 0 c-34 0 -36 2 -32
28 3 25 3 26 -8 6 -6 -12 -21 -26 -33 -32 -16 -8 -1 -11 67 -13 49 -2 91 -1
94 4 2 4 0 7 -6 7 -25 0 -41 33 -41 86 0 52 2 55 23 52 13 -2 28 -15 37 -35 8
-18 18 -33 23 -33 4 0 7 36 7 80 0 76 -11 103 -25 60 -7 -21 -40 -44 -53 -36
-10 6 -15 72 -7 97 14 43 125 10 125 -36 0 -8 4 -15 9 -15 9 0 21 79 14 93 -6
11 -261 9 -268 -3z"/>
<path d="M388 862 c-15 -10 -36 -28 -47 -41 -21 -24 -37 -78 -27 -88 3 -4 6 3
6 15 0 12 5 22 10 22 6 0 10 8 10 18 0 30 91 95 108 78 3 -3 -2 -8 -11 -12
-21 -8 -49 -62 -36 -70 5 -3 9 2 9 11 0 25 46 65 75 65 15 0 36 -11 50 -26 14
-15 25 -22 25 -17 0 5 -9 18 -20 28 -26 23 -21 28 16 15 16 -6 43 -30 59 -53
76 -107 6 -256 -115 -240 -25 3 -55 15 -67 26 -13 11 -23 15 -23 9 0 -7 15
-22 33 -33 27 -17 28 -19 7 -14 -68 20 -114 65 -131 129 -8 28 -8 27 -4 -9 12
-104 129 -163 240 -120 65 24 96 69 102 147 8 116 -54 178 -177 178 -45 0 -73
-5 -92 -18z"/>
<path d="M680 871 c0 -5 34 -8 78 -6 42 3 69 2 60 -1 -15 -5 -17 -22 -17 -151
0 -80 3 -142 6 -139 4 3 5 31 4 61 -1 30 1 55 6 55 4 0 30 -32 57 -70 27 -38
56 -71 65 -72 8 -2 34 -1 59 1 l44 3 -34 37 c-19 20 -46 52 -61 73 l-27 36 26
17 c56 37 53 117 -6 147 -27 14 -60 18 -147 18 -63 0 -113 -4 -113 -9z m237
-12 c18 -6 38 -24 48 -44 18 -32 18 -34 1 -60 -10 -15 -27 -30 -37 -32 -26 -7
-24 -23 11 -71 17 -23 30 -44 30 -48 0 -3 8 -13 17 -22 16 -16 15 -17 -16 -20
-35 -4 -33 -6 -101 91 -35 48 -38 57 -23 57 34 0 63 37 63 79 0 37 -16 62 -50
74 -10 4 -8 6 6 6 12 1 35 -4 51 -10z"/>
<path d="M1027 873 c-4 -3 -7 -11 -7 -17 0 -6 5 -5 12 2 7 7 28 11 48 11 21
-1 27 -3 15 -6 -27 -7 -55 -33 -56 -52 0 -12 -3 -11 -9 4 -8 19 -9 19 -9 -2
-1 -35 14 -34 34 3 14 26 24 34 47 34 l28 0 0 -135 0 -134 -27 -15 c-26 -14
-23 -15 70 -16 53 0 97 2 97 5 0 3 -11 10 -25 15 -25 9 -25 10 -25 145 l0 135
28 0 c23 0 33 -8 48 -35 12 -22 22 -31 28 -25 6 6 -4 22 -27 45 -34 33 -34 35
-11 33 14 -2 24 -9 24 -17 0 -11 3 -12 11 -4 26 26 -4 33 -145 33 -78 0 -146
-3 -149 -7z m188 -9 c-6 -2 -9 -61 -7 -154 l3 -150 -43 1 c-24 0 -38 2 -33 5
6 2 9 62 8 154 l-2 150 42 -1 c23 0 38 -2 32 -5z"/>
<path d="M1350 871 c0 -5 9 -11 20 -14 19 -5 20 -14 20 -135 0 -105 -3 -134
-16 -146 -8 -9 -20 -16 -25 -16 -6 0 -8 -3 -6 -7 3 -5 70 -7 150 -5 l145 3 4
47 c6 63 1 69 -26 30 -23 -35 -73 -58 -112 -50 -22 4 -24 9 -24 64 0 51 2 59
16 54 9 -3 17 -6 19 -6 2 0 9 -16 15 -36 8 -24 15 -32 20 -24 9 14 -26 80 -43
80 -6 0 -1 9 11 20 12 12 22 27 22 35 0 7 2 22 5 32 3 10 -2 2 -11 -17 -15
-34 -30 -50 -46 -50 -5 0 -8 27 -8 60 l0 60 38 0 c43 -1 71 -19 88 -58 7 -15
13 -21 13 -14 2 30 -30 72 -62 81 l-32 9 43 1 c23 1 42 -4 42 -10 0 -5 5 -7
10 -4 6 4 8 11 5 16 -8 12 -275 12 -275 0z m145 -8 l-30 -4 1 -140 c1 -109 4
-143 15 -150 9 -6 -4 -9 -39 -9 -35 0 -51 4 -47 11 4 5 6 75 6 155 l-2 144 63
-2 c35 0 50 -3 33 -5z"/>
<path d="M1795 871 c-3 -5 5 -11 17 -13 22 -3 23 -6 26 -141 l3 -137 -28 -13
c-25 -11 -21 -12 54 -15 46 -2 120 -2 165 0 75 3 80 4 56 15 l-28 13 1 112 0
113 29 -63 c16 -35 35 -81 41 -102 7 -22 15 -40 19 -40 5 0 11 -11 14 -25 4
-14 11 -25 17 -25 13 0 51 89 52 122 0 15 4 25 9 22 11 -7 39 61 32 79 -3 8 2
14 11 14 8 0 15 -4 15 -9 0 -4 4 -8 9 -8 8 0 8 43 -1 80 -2 11 8 16 37 18 l40
3 0 -156 0 -155 -37 0 c-29 0 -38 4 -38 18 0 10 -3 13 -8 6 -4 -6 -16 -15 -27
-20 -23 -11 105 -16 262 -12 70 2 92 6 78 12 -29 14 -35 26 -35 73 0 42 22 83
45 83 16 0 32 32 30 60 -3 42 -14 67 -38 79 -20 10 -18 11 13 6 49 -7 85 -36
87 -71 4 -38 -16 -63 -64 -79 l-38 -14 33 -1 c75 -1 112 98 56 151 -23 22 -35
24 -140 27 -69 2 -114 0 -114 -6 0 -5 10 -12 23 -16 32 -8 39 -7 32 4 -4 6 11
10 37 9 24 0 39 -2 33 -5 -6 -2 -8 -35 -5 -84 3 -44 3 -80 0 -80 -3 0 -3 -31
0 -70 l5 -70 -37 0 c-34 0 -36 2 -33 28 4 25 4 26 -6 5 -17 -33 -68 -43 -93
-17 -13 12 -16 41 -16 146 0 121 1 130 20 135 44 12 16 24 -46 21 l-67 -3 -41
-97 -40 -96 -31 66 c-17 37 -37 82 -44 100 -13 32 -14 32 -82 32 -66 0 -91
-12 -49 -23 19 -5 20 -13 20 -134 0 -70 -4 -133 -8 -139 -12 -18 -50 -26 -72
-14 -19 10 -20 20 -20 146 0 127 1 136 20 141 11 3 20 9 20 14 0 12 -167 12
-175 0z m125 -156 l0 -155 -41 0 c-28 0 -38 4 -33 11 8 13 6 263 -3 285 -4 11
5 14 36 14 l41 0 0 -155z m239 53 c25 -57 49 -106 54 -109 5 -4 0 -25 -11 -49
-21 -47 -22 -47 -51 29 -12 28 -38 89 -59 134 l-37 82 -5 -125 -5 -125 -5 133
-5 132 40 0 40 0 44 -102z"/>
<path d="M2750 871 c0 -5 9 -11 20 -14 19 -5 20 -14 20 -140 0 -128 -1 -135
-22 -150 -21 -15 -13 -16 115 -16 75 -1 140 -2 145 -3 4 -2 8 8 10 22 2 23 1
24 -11 8 -10 -12 -27 -18 -53 -17 l-39 1 35 8 c18 5 40 17 48 27 7 10 18 17
23 16 5 -2 9 9 9 23 0 22 -2 25 -15 14 -8 -7 -15 -18 -15 -24 0 -20 -56 -46
-99 -46 l-41 0 0 61 c0 52 2 60 18 57 9 -2 23 -18 31 -36 8 -17 18 -32 23 -32
12 0 10 168 -2 175 -5 3 -10 -2 -10 -12 0 -25 -28 -63 -46 -63 -11 0 -14 14
-14 59 l0 60 43 4 42 4 -50 1 -50 2 2 -133 c1 -72 2 -137 2 -144 1 -6 11 -14
24 -16 12 -2 -4 -5 -35 -6 l-57 -1 -3 155 -3 156 110 -3 c109 -3 110 -3 114
-28 3 -24 2 -24 -16 -7 -25 22 -41 22 -21 0 8 -10 18 -26 21 -35 12 -35 27
-17 27 32 l0 50 -140 0 c-77 0 -140 -4 -140 -9z"/>
<path d="M3080 871 c0 -5 9 -11 20 -14 19 -5 20 -14 20 -146 0 -134 -1 -141
-20 -141 -11 0 -20 -4 -20 -10 0 -6 35 -10 86 -10 54 0 83 4 79 10 -3 6 -12
10 -20 10 -7 0 -16 6 -18 13 -3 7 -6 5 -6 -5 -1 -14 -10 -18 -42 -18 -28 0
-38 4 -33 11 8 14 6 263 -3 286 -5 13 8 14 96 11 77 -2 104 -7 111 -18 5 -8
10 -11 10 -6 0 22 29 -31 30 -54 0 -30 -25 -70 -45 -70 -25 0 -27 -20 -4 -53
13 -17 26 -34 29 -37 3 -3 15 -20 28 -37 l23 -33 -34 0 c-30 0 -39 7 -83 70
-28 39 -56 69 -66 70 -10 0 -18 -4 -18 -10 0 -5 6 -7 13 -5 7 3 21 -10 31 -30
11 -19 22 -35 25 -35 4 0 15 -16 25 -35 l19 -35 144 0 c89 0 143 4 143 10 0 6
-6 10 -14 10 -23 0 -28 32 -25 160 3 105 5 121 21 126 41 13 13 24 -62 24 -75
0 -103 -11 -62 -24 12 -4 19 -18 20 -43 2 -21 5 -40 8 -43 4 -3 4 19 3 48 l-4
52 35 0 35 0 0 -155 0 -155 -39 0 c-36 0 -38 1 -32 28 5 25 5 26 -6 5 -7 -16
-20 -23 -39 -23 -23 0 -36 12 -73 63 l-45 62 30 23 c24 19 29 31 29 65 -1 51
-17 75 -61 87 -42 12 -239 13 -239 1z"/>
<path d="M1135 340 c-122 -4 -136 -7 -112 -17 l27 -13 0 -136 c0 -127 -1 -136
-20 -141 -55 -14 -5 -23 135 -23 85 0 155 2 155 5 0 3 -11 10 -25 15 -25 9
-25 12 -25 117 0 59 4 103 8 97 9 -8 143 -174 149 -183 2 -2 6 -2 9 2 5 4 -93
134 -126 167 -3 3 -22 27 -43 53 l-39 48 39 -3 c41 -2 58 -18 151 -137 59 -77
68 -75 64 16 -2 69 -1 77 23 99 14 12 25 26 25 29 0 3 -25 5 -56 5 l-57 0 27
-25 c23 -21 26 -32 26 -90 0 -36 -2 -65 -3 -65 -2 0 -36 40 -76 89 -66 82 -91
105 -109 99 -4 -1 -70 -5 -147 -8z m-6 -165 l0 -155 -37 0 -37 0 0 155 0 155
37 0 37 0 0 -155z m91 135 c18 -18 20 -33 20 -140 0 -115 -1 -120 -24 -135
-18 -12 -30 -13 -50 -6 l-26 11 0 135 c0 131 1 136 23 145 32 13 35 12 57 -10z"/>
<path d="M1560 290 c0 -58 9 -63 30 -17 11 23 23 33 43 35 l27 3 0 -136 c0
-128 -1 -137 -20 -142 -47 -12 -14 -23 70 -23 50 0 90 2 90 5 0 3 -11 10 -25
15 l-26 10 3 132 c3 120 5 133 21 136 11 2 30 -7 44 -20 23 -21 25 -22 21 -3
-2 11 -14 25 -28 33 l-25 13 30 -3 c28 -3 30 -6 29 -40 -1 -21 3 -38 7 -38 5
0 9 20 9 45 l0 45 -150 0 -150 0 0 -50z m185 -115 l0 -155 -37 0 -37 0 0 155
1 155 37 0 36 0 0 -155z"/>
<path d="M1880 330 c0 -5 9 -10 20 -10 19 0 20 -7 20 -145 0 -80 3 -145 8
-145 4 0 6 67 5 150 l-2 150 37 0 37 0 -3 -147 c-2 -109 1 -149 10 -156 8 -5
-15 -7 -59 -3 -43 3 -73 1 -73 -5 0 -5 61 -9 145 -9 131 0 145 2 145 18 0 9 3
34 6 54 5 27 3 38 -6 38 -8 0 -10 -9 -6 -27 3 -16 3 -22 0 -15 -4 9 -15 5 -36
-13 -24 -21 -40 -25 -72 -23 l-41 3 -3 58 c-3 52 -1 58 15 55 10 -2 24 -18 32
-36 8 -17 18 -32 23 -32 11 0 10 167 -1 174 -5 3 -12 -5 -15 -18 -7 -30 -34
-58 -47 -51 -10 7 -12 75 -3 99 10 26 70 20 99 -9 14 -13 25 -31 25 -40 0 -9
5 -13 10 -10 6 3 10 28 10 56 l0 49 -140 0 c-87 0 -140 -4 -140 -10z"/>
<path d="M2205 330 c3 -5 12 -10 20 -10 21 0 25 -24 25 -157 0 -116 -1 -125
-20 -130 -46 -12 -15 -23 65 -23 50 0 85 4 85 10 0 6 -9 10 -20 10 -11 0 -20
5 -20 10 0 6 -5 10 -11 10 -6 0 -9 -7 -5 -15 4 -12 -3 -15 -32 -15 l-37 0 0
155 0 155 38 0 c23 0 36 -4 32 -10 -4 -6 7 -10 25 -10 52 0 70 -16 70 -59 0
-46 -19 -65 -64 -65 -24 0 -32 -4 -32 -18 0 -10 6 -18 12 -18 7 0 35 -31 64
-70 l52 -70 145 0 c93 0 142 4 138 10 -3 5 -12 10 -20 10 -21 0 -25 24 -25
138 0 119 6 152 26 152 7 0 16 5 19 10 4 6 -27 10 -84 10 -54 0 -91 -4 -91
-10 0 -5 9 -10 20 -10 11 0 20 -7 20 -15 0 -8 5 -15 11 -15 6 0 8 9 4 20 -6
18 -2 20 32 20 l38 0 0 -155 0 -155 -37 0 c-28 0 -36 4 -32 14 3 8 1 17 -4 20
-6 3 -12 -1 -16 -9 -3 -8 -16 -15 -30 -15 -18 0 -35 15 -69 62 l-45 63 29 23
c24 19 29 31 29 67 0 36 -5 48 -31 69 -29 25 -36 26 -155 26 -81 0 -123 -4
-119 -10z m236 -10 c23 -6 40 -19 47 -36 23 -49 16 -65 -42 -107 -17 -13 -16
-17 32 -83 l51 -69 -30 -3 c-34 -4 -50 9 -86 68 -12 19 -31 45 -43 58 -19 20
-19 22 -3 22 30 0 61 28 68 60 8 38 -13 82 -45 91 -20 6 -21 7 -5 8 11 0 36
-4 56 -9z"/>
<path d="M2837 321 c-54 -36 -77 -80 -76 -144 1 -62 21 -107 63 -141 33 -27
44 -30 111 -31 82 0 111 14 153 75 17 25 22 47 22 94 0 68 -21 113 -67 143
-37 25 -171 27 -206 4z m46 -9 c-25 -20 -46 -88 -34 -110 6 -10 10 -1 15 32 4
25 7 49 6 52 -1 4 13 14 30 22 41 20 80 7 100 -33 21 -42 19 -161 -3 -202 -33
-63 -105 -52 -131 21 -10 29 -15 35 -15 18 -1 -30 24 -78 44 -86 56 -21 109 5
125 62 23 83 6 199 -33 227 -16 11 -17 15 -6 15 27 0 81 -43 100 -80 20 -37
27 -138 8 -110 -8 12 -9 10 -4 -7 13 -47 -80 -123 -151 -123 -38 0 -97 27 -88
41 4 8 3 9 -5 5 -25 -16 -71 68 -71 128 0 34 41 108 57 102 8 -3 11 -2 8 3 -7
12 33 41 55 41 11 0 9 -5 -7 -18z"/>
<path d="M3134 331 c4 -6 13 -11 21 -11 21 0 25 -24 25 -148 0 -122 -3 -134
-34 -145 -31 -12 -15 -16 72 -18 83 -2 111 5 76 18 -28 10 -34 23 -34 74 0 50
9 62 52 73 15 3 32 14 37 24 10 20 21 111 12 110 -3 -1 -13 2 -21 5 -8 3 -26
8 -40 10 -14 3 0 3 30 1 44 -2 59 -8 78 -29 12 -14 22 -35 22 -46 0 -21 -43
-71 -70 -82 -10 -4 -11 -8 -4 -14 5 -4 23 -26 39 -48 17 -22 32 -42 35 -45 3
-3 11 -13 19 -22 12 -16 10 -18 -23 -18 -31 0 -40 6 -67 42 -55 78 -72 98 -77
94 -4 -5 52 -91 75 -114 7 -7 13 -18 13 -23 0 -5 27 -9 60 -9 33 0 60 2 60 4
0 2 -14 19 -31 37 -47 50 -86 112 -73 116 29 10 46 32 51 69 4 33 1 45 -20 70
-25 29 -25 29 -157 32 -93 3 -130 0 -126 -7z m121 -156 l0 -155 -35 0 -35 0 0
155 0 155 35 0 35 0 0 -155z"/>
</g>
</svg>
